<svg width="375" height="53" xmlns="http://www.w3.org/2000/svg"><g fill="none" fill-rule="evenodd"><path d="M7.958 23.803v12.744H1V1h12.354c3.548 0 6.347 1.05 8.398 3.15 2.05 2.099 3.076 4.85 3.076 8.251 0 3.418-1.03 6.173-3.088 8.265-2.06 2.091-4.855 3.137-8.386 3.137H7.958Zm0-5.567h5.396c1.48 0 2.612-.545 3.393-1.635.781-1.09 1.172-2.474 1.172-4.15 0-1.694-.387-3.097-1.16-4.212-.773-1.115-1.908-1.673-3.405-1.673H7.958v11.67ZM51.414 29.003h-9.375l-1.905 7.544h-7.007L43.137 1h7.227l9.985 35.547h-7.007l-1.928-7.544Zm-7.96-5.59h6.544l-3.199-12.574h-.146l-3.198 12.573Z" fill="#219502"/><path d="M79.586 22.411v14.136h-6.934V1.024H84.25c3.5 0 6.246.924 8.24 2.771 1.994 1.848 2.99 4.415 2.99 7.703 0 1.856-.415 3.455-1.245 4.797-.83 1.343-2.042 2.413-3.637 3.21 1.823.62 3.137 1.645 3.943 3.077.805 1.432 1.208 3.223 1.208 5.371v2.515c0 .976.114 2.022.342 3.137.228 1.115.626 1.925 1.196 2.43v.512h-7.178c-.57-.521-.927-1.367-1.074-2.54a28.91 28.91 0 0 1-.22-3.588v-2.417c0-1.774-.362-3.15-1.086-4.126-.724-.977-1.762-1.465-3.113-1.465h-5.03Zm0-5.542h4.639c1.416 0 2.49-.431 3.222-1.294.733-.862 1.099-2.091 1.099-3.686 0-1.628-.366-2.922-1.099-3.882-.732-.96-1.798-1.44-3.198-1.44h-4.663v10.302Z" fill="#378D0A"/><path fill="#219502" d="m119.404 1 6.372 26.099h.146L132.368 1h9.057v35.547h-6.909V26.22l.586-13.819-.146-.024-6.788 24.17h-4.614l-6.714-23.975-.146.025.61 13.623v10.327h-6.909V1z"/><path fill="#69781B" d="M175.09 20.946h-11.938v10.059h14.038v5.542h-20.996V1h20.948v5.566h-13.99v8.838h11.939z"/><path fill="#866C26" d="M197.062 31.005h13.647v5.542h-21.46v-3.491l13.33-26.514h-13.476V1h21.387v3.37z"/><path d="M240.517 29.003h-9.375l-1.904 7.544h-7.007L232.241 1h7.227l9.985 35.547h-7.007l-1.929-7.544Zm-7.959-5.59h6.543l-3.198-12.574h-.146l-3.199 12.573Z" fill="#A75F32"/><path fill="#C5533C" d="M286.61 36.547h-6.91l-10.864-22.73-.146.05v22.68h-6.958V1h6.958l10.864 22.705.147-.049V1h6.909z"/><path fill="#DF4846" d="M311.535 21.776h-3.027v14.77h-6.958V1h6.958v14.453h2.246L317.687 1h8.52l-9.692 16.235 10.499 19.312h-8.448z"/><path d="M354.82 29.003h-9.375l-1.905 7.544h-7.006L346.544 1h7.226l9.985 35.547h-7.007l-1.928-7.544Zm-7.96-5.59h6.544l-3.199-12.574h-.146l-3.198 12.573Z" fill="#F53F4E"/></g></svg>