<svg xmlns="http://www.w3.org/2000/svg" width="234" height="234"><g fill="#E2E2E2" fill-rule="evenodd"><path d="M199.52 34.232A116.875 116.875 0 1 0 34.231 199.518 116.875 116.875 0 0 0 199.52 34.232Zm-3.007 162.281c-43.982 43.983-115.292 43.983-159.274 0-43.982-43.982-43.982-115.291 0-159.274 43.982-43.982 115.292-43.982 159.274 0a112.624 112.624 0 0 1 0 159.274Z"/><path d="M107.698 116.408a15.784 15.784 0 1 0 11.162 4.623 15.736 15.736 0 0 0-11.162-4.623Zm9.608 25.391a13.586 13.586 0 1 1 3.98-9.607 13.544 13.544 0 0 1-3.98 9.607ZM105.92 114.21c-4.9-9.265-6.083-13.823-7.123-25.2-7.051.425-8.553.133-15.384-.401.314 12.782 3.981 20.763 11.748 30.442a18.177 18.177 0 0 1 10.76-4.84Z"/><path d="m78.85 87.793-6.521-1.812a4.503 4.503 0 0 0-5.597 2.515c-2.039 4.033-.995 10.388.37 14.507 4.237 12.797 11.48 18.673 22.965 24.387a18.132 18.132 0 0 1 2.068-4.662c-9.59-11.586-10.508-20.73-13.286-34.935ZM29.868 102.108c-1.176.073-.986.254-1.106.331 8.686 3.115 19.96.942 29.995-.142-.017-5.914-24.686-.332-28.89-.19ZM43.468 111.403c3.758 1.232 18.96 1.794 18.964-1.46-.936-2.578-16.874.044-18.964 1.46Z"/><circle cx="107.699" cy="132.192" r="7.125"/><path d="M163.087 90.62a32.21 32.21 0 0 0 1.538 6.013 32.27 32.27 0 0 0 11.393 15.925l10.917 5.354c.496-3.111-2.457-9.479-3.73-11.517-3.686-5.906-13.068-14.12-20.118-15.776Z"/><path d="M158.08 88.877c-20.077-4.053-12.24 17.925-3.399 25.428a18.248 18.248 0 0 1 20.74 17.127c7.115-1.175 7.27-3.356 11.177-8.872-18.259-5.338-24.492-16.018-28.519-33.683Z"/><path d="M149.58 115.795c-9.805-9.67-5.263-25.739-13.495-28.948-3.26-1.27-9.44-1.23-13.207-.727-.713 12.58 8.983 31.258 16.652 41.216.197-.266 1.132-2.931 1.53-3.688a19.632 19.632 0 0 1 8.52-7.853Z"/><path d="M157.28 116.408a15.785 15.785 0 1 0 11.161 4.623 15.736 15.736 0 0 0-11.161-4.623Zm9.607 25.391a13.586 13.586 0 1 1 3.98-9.607 13.545 13.545 0 0 1-3.98 9.607ZM118.242 86.424l-14.8 2.1c-1.233 7.557 3.73 19.435 7.976 26.004a18.25 18.25 0 0 1 14.446 17.847c0 .113-.002.226-.004.338l12.698.655c-.338-.662-2.799-3.36-3.76-4.678-10.407-14.265-14.3-25.197-16.556-42.266Z"/><circle cx="157.28" cy="132.192" r="7.124"/></g></svg>