<svg xmlns="http://www.w3.org/2000/svg" width="234" height="234"><path d="M116.876 4.252c-45.552 0-86.62 27.44-104.051 69.524-17.432 42.085-7.796 90.527 24.414 122.737 43.992 43.925 115.254 43.897 159.213-.061 43.958-43.959 43.986-115.221.061-159.213a112.272 112.272 0 0 0-79.637-32.987Zm26.176 123.682h16.557c.63.002 1.142.512 1.143 1.143v11.03a1.146 1.146 0 0 1-1.143 1.144h-16.557a1.146 1.146 0 0 1-1.143-1.143v-11.031a1.146 1.146 0 0 1 1.143-1.143ZM67.75 78.329h98.254a8.36 8.36 0 0 1 5.915 2.464l.004-.004a8.355 8.355 0 0 1 2.46 5.92v60.334a8.355 8.355 0 0 1-2.46 5.92l-.004-.005a8.36 8.36 0 0 1-5.915 2.464H67.749a8.359 8.359 0 0 1-5.915-2.464l-.004.004a8.355 8.355 0 0 1-2.46-5.92V86.71c0-2.222.885-4.352 2.46-5.92l.004.004a8.36 8.36 0 0 1 5.915-2.464Zm-4.127 18.63H170.13V86.71a4.115 4.115 0 0 0-1.214-2.913v-.009a4.109 4.109 0 0 0-2.913-1.206H67.749a4.109 4.109 0 0 0-2.913 1.206v.008a4.115 4.115 0 0 0-1.214 2.914v10.25Zm106.507 17.06H63.622v33.024a4.115 4.115 0 0 0 1.214 2.913v.009a4.108 4.108 0 0 0 2.913 1.205h98.254a4.108 4.108 0 0 0 2.913-1.205v-.009a4.115 4.115 0 0 0 1.213-2.913v-33.024ZM34.232 34.232A116.875 116.875 0 1 1 199.52 199.518 116.875 116.875 0 0 1 34.232 34.232Z" fill="#E2E2E2" fill-rule="evenodd"/></svg>