<svg xmlns:xlink="http://www.w3.org/1999/xlink" xmlns="http://www.w3.org/2000/svg" class="social-icon-index" width="152" height="152"><defs><symbol xmlns="http://www.w3.org/2000/svg" viewBox="0 0 152 152" id="a"><circle cx="76" cy="56.18" r="10.06" transform="rotate(-9.25 76.05 56.304)"/><path d="M76 0a76 76 0 1 0 76 76A76 76 0 0 0 76 0zm0 36a20.18 20.18 0 1 1-20.18 20.18A20.17 20.17 0 0 1 76 36zm27.12 52.78a60.93 60.93 0 0 1-14.33 5.87l9.72 9.72a6.81 6.81 0 0 1 0 9.63 6.81 6.81 0 0 1-9.63 0L76 101.12 63.12 114a6.81 6.81 0 0 1-9.63 0 6.81 6.81 0 0 1 0-9.63l9.72-9.72a60.93 60.93 0 0 1-14.33-5.87 6.85 6.85 0 0 1 6.7-12c13.74 7.7 27.1 7.7 40.84 0a6.85 6.85 0 0 1 6.7 12z"/></symbol></defs><use xlink:href="#a" fill="#8E8E8E"/></svg>