<?xml version="1.0" encoding="UTF-8"?>
<svg width="135px" height="40px" viewBox="0 0 135 40" version="1.1" xmlns="http://www.w3.org/2000/svg">
    <!-- Generator: Sketch 63.1 (92452) - https://sketch.com -->
    <title>Group 4</title>
    <desc>Created with Sketch.</desc>
    <g id="Page-1" stroke="none" stroke-width="1" fill="none" fill-rule="evenodd">
        <g id="Боковое-меню_меню-развернуто" transform="translate(-15.000000, -1208.000000)">
            <g id="Group-14" transform="translate(15.000000, 959.000000)">
                <g id="Group-11" transform="translate(0.000000, 110.000000)">
                    <g id="Group-6" transform="translate(0.000000, 100.000000)">
                        <g id="Group-3" transform="translate(0.000000, 39.000000)">
                            <g id="Group-4">
                                <rect id="Rectangle-8-Copy" fill="#FFFFFF" x="0" y="0" width="135" height="40" rx="5"></rect>
                                <path d="M49.9549656,30.77 L52.1618881,30.77 L47.2387532,17.34 L45.0318306,17.34 L40.1086957,30.77 L42.3156182,30.77 L43.5039611,27.2 L48.5968594,27.2 L49.9549656,30.77 Z M46.0504103,19.72 L46.0504103,19.72 L48.0875696,25.33 L44.013251,25.33 L46.0504103,19.72 Z M57.9338395,20.4 C56.5757333,20.4 55.3873904,21.08 54.7083373,22.27 L54.538574,22.27 L54.538574,20.57 L52.671178,20.57 L52.671178,34 L54.7083373,34 L54.7083373,29.24 L54.8781005,29.24 C55.3873904,30.26 56.5757333,30.94 57.9338395,30.94 C60.4802886,30.94 62.1779213,28.9 62.1779213,25.67 C62.1779213,22.44 60.4802886,20.4 57.9338395,20.4 L57.9338395,20.4 Z M57.4245497,29.07 C55.7269169,29.07 54.7083373,27.71 54.7083373,25.67 C54.7083373,23.63 55.7269169,22.27 57.4245497,22.27 C59.1221824,22.27 60.140762,23.63 60.140762,25.67 C60.140762,27.88 59.1221824,29.07 57.4245497,29.07 L57.4245497,29.07 Z M68.2893992,20.4 C66.931293,20.4 65.7429501,21.08 65.063897,22.27 L64.8941337,22.27 L64.8941337,20.57 L63.0267377,20.57 L63.0267377,34 L65.063897,34 L65.063897,29.24 L65.2336603,29.24 C65.7429501,30.26 66.931293,30.94 68.2893992,30.94 C70.8358483,30.94 72.5334811,28.9 72.5334811,25.67 C72.5334811,22.44 70.8358483,20.4 68.2893992,20.4 L68.2893992,20.4 Z M67.7801094,29.07 C66.0824767,29.07 65.063897,27.71 65.063897,25.67 C65.063897,23.63 66.0824767,22.27 67.7801094,22.27 C69.4777421,22.27 70.4963218,23.63 70.4963218,25.67 C70.4963218,27.88 69.4777421,29.07 67.7801094,29.07 L67.7801094,29.07 Z M76.777563,27.03 C76.9473262,29.41 78.9844855,30.94 81.8704612,30.94 C85.0959634,30.94 86.9633594,29.41 86.9633594,26.69 C86.9633594,24.65 85.7750165,23.63 83.0588041,22.95 L81.7006979,22.78 C80.0030652,22.44 79.3240121,21.76 79.3240121,20.91 C79.3240121,19.72 80.3425917,18.87 82.0402245,18.87 C83.5680939,18.87 84.7564369,19.72 84.9262001,20.91 L86.9633594,20.91 C86.7935962,18.7 84.9262001,17 82.2099877,17 C79.3240121,17 77.2868528,18.53 77.2868528,20.91 C77.2868528,22.95 78.4751957,24.14 80.8518815,24.65 L82.5495143,24.99 C84.247147,25.33 85.0959634,26.01 85.0959634,27.03 C85.0959634,28.22 83.9076205,29.07 82.2099877,29.07 C80.3425917,29.07 79.1542488,28.22 78.9844855,27.03 L76.777563,27.03 Z M88.8307554,18.19 L88.8307554,20.74 L87.1331227,20.74 L87.1331227,22.44 L88.8307554,22.44 L88.8307554,28.22 C88.8307554,30.09 89.6795718,30.94 91.8864944,30.94 C92.2260209,30.94 92.5655475,30.94 92.905074,30.77 L92.905074,29.07 C92.5655475,29.07 92.3957842,29.07 92.2260209,29.07 C91.2074413,29.07 90.8679147,28.56 90.8679147,27.54 L90.8679147,22.27 L93.0748373,22.27 L93.0748373,20.57 L90.8679147,20.57 L90.8679147,18.02 L88.8307554,18.02 L88.8307554,18.19 Z M97.9979723,29.07 C96.3003395,29.07 95.2817599,27.71 95.2817599,25.5 C95.2817599,23.29 96.3003395,22.1 97.9979723,22.1 C99.695605,22.1 100.714185,23.46 100.714185,25.5 C100.714185,27.88 99.695605,29.07 97.9979723,29.07 L97.9979723,29.07 Z M97.9979723,30.94 C100.883948,30.94 102.751344,28.9 102.751344,25.67 C102.751344,22.44 100.883948,20.4 97.9979723,20.4 C95.1119966,20.4 93.2446006,22.44 93.2446006,25.67 C93.2446006,28.9 95.1119966,30.94 97.9979723,30.94 L97.9979723,30.94 Z M103.769924,30.77 L105.807083,30.77 L105.807083,24.82 C105.807083,23.46 106.825663,22.44 108.353532,22.44 C108.693059,22.44 109.372112,22.44 109.541875,22.61 L109.541875,20.57 C109.372112,20.57 109.032585,20.57 108.693059,20.57 C107.334952,20.57 106.316373,21.25 105.976846,22.27 L105.807083,22.27 L105.807083,20.74 L103.939687,20.74 L103.939687,30.77 L103.769924,30.77 Z M113.95572,22.1 C115.48359,22.1 116.332406,23.12 116.502169,24.65 L111.409271,24.65 C111.409271,23.12 112.427851,22.1 113.95572,22.1 L113.95572,22.1 Z M116.332406,28.05 C115.992879,28.9 115.144063,29.24 113.95572,29.24 C112.427851,29.24 111.409271,28.05 111.239508,26.35 L111.239508,26.18 L118.369565,26.18 L118.369565,25.5 C118.369565,22.27 116.671932,20.4 113.785957,20.4 C110.899981,20.4 109.032585,22.44 109.032585,25.67 C109.032585,28.9 110.730218,30.94 113.785957,30.94 C116.162643,30.94 117.690512,29.75 118.199802,28.05 L116.332406,28.05 Z" id="App-Store_4_" fill="#000000" fill-rule="nonzero"></path>
                                <path d="M44.743407,9.96 L45.5933713,9.96 C46.4433357,9.96 46.9533143,10.32 46.9533143,11.22 C46.9533143,11.94 46.4433357,12.48 45.5933713,12.48 C44.743407,12.48 44.2334284,12.12 44.0634355,11.4 L43.0434783,11.4 C43.0434783,12.66 44.0634355,13.38 45.5933713,13.38 C46.9533143,13.38 47.9732716,12.48 47.9732716,11.22 C47.9732716,10.32 47.4632929,9.6 46.6133286,9.42 L46.6133286,9.42 C47.2933001,9.24 47.8032787,8.52 47.8032787,7.8 C47.8032787,6.72 46.9533143,6 45.5933713,6 C44.2334284,6 43.383464,6.72 43.2134711,7.98 L44.2334284,7.98 C44.2334284,7.26 44.743407,6.9 45.5933713,6.9 C46.4433357,6.9 46.9533143,7.26 46.9533143,7.98 C46.9533143,8.52 46.2733428,9.06 45.5933713,9.06 L44.743407,9.06 L44.743407,9.96 Z M50.6931575,12.3 C50.1831789,12.3 49.6732003,11.94 49.6732003,11.58 C49.6732003,11.04 50.013186,10.86 50.6931575,10.86 L51.8831076,10.86 L51.8831076,11.22 C52.0531005,11.76 51.5431219,12.3 50.6931575,12.3 L50.6931575,12.3 Z M50.5231646,13.2 C51.2031361,13.2 51.8831076,12.84 52.0531005,12.3 L52.0531005,12.3 L52.0531005,13.2 L53.0730577,13.2 L53.0730577,9.6 C53.0730577,8.52 52.2230934,7.8 51.0331433,7.8 C49.8431932,7.8 48.9932288,8.52 48.9932288,9.42 L49.8431932,9.42 C50.013186,8.88 50.3531718,8.7 50.8631504,8.7 C51.5431219,8.7 51.8831076,9.06 51.8831076,9.6 L51.8831076,9.96 L50.5231646,9.96 C49.3332145,9.96 48.6532431,10.5 48.6532431,11.58 C48.8232359,12.48 49.5032074,13.2 50.5231646,13.2 L50.5231646,13.2 Z M57.3228795,8.7 L57.3228795,7.8 L54.093015,7.8 L54.093015,13.02 L55.1129722,13.02 L55.1129722,8.7 L57.3228795,8.7 Z M60.722737,7.8 C60.0427655,7.8 59.362794,8.16 59.1928011,8.7 L59.1928011,8.7 L59.1928011,7.8 L58.1728439,7.8 L58.1728439,14.82 L59.1928011,14.82 L59.1928011,12.3 L59.1928011,12.3 C59.5327869,12.84 60.0427655,13.2 60.722737,13.2 C61.9126871,13.2 62.7626515,12.12 62.7626515,10.5 C62.9326443,8.88 62.08268,7.8 60.722737,7.8 L60.722737,7.8 Z M60.5527441,12.3 C59.7027798,12.3 59.1928011,11.58 59.1928011,10.5 C59.1928011,9.42 59.7027798,8.7 60.5527441,8.7 C61.4027085,8.7 61.9126871,9.42 61.9126871,10.5 C61.9126871,11.58 61.4027085,12.3 60.5527441,12.3 L60.5527441,12.3 Z M64.2925873,15 C65.3125445,15 65.8225232,14.64 66.1625089,13.38 L68.0324305,7.8 L67.0124733,7.8 L65.6525303,12.12 L65.6525303,12.12 L64.2925873,7.8 L63.2726301,7.8 L65.1425517,13.02 L65.1425517,13.38 C64.9725588,13.92 64.6325731,14.1 64.2925873,14.1 C64.1225944,14.1 64.1225944,14.1 63.9526016,14.1 L63.9526016,15 C63.9526016,15 64.2925873,15 64.2925873,15 L64.2925873,15 Z M70.5823236,13.2 C71.7722737,13.2 72.6222381,12.48 72.6222381,11.58 C72.6222381,11.04 72.2822523,10.5 71.6022808,10.32 L71.6022808,10.32 C72.1122594,10.14 72.4522452,9.78 72.4522452,9.24 C72.4522452,8.34 71.7722737,7.8 70.5823236,7.8 C69.3923735,7.8 68.712402,8.34 68.712402,9.24 L69.7323592,9.24 C69.7323592,8.88 70.2423378,8.52 70.7523165,8.52 C71.432288,8.52 71.6022808,8.88 71.6022808,9.24 C71.6022808,9.78 71.2622951,9.96 70.7523165,9.96 L70.072345,9.96 L70.072345,10.68 L70.7523165,10.68 C71.432288,10.68 71.7722737,10.86 71.7722737,11.4 C71.7722737,11.94 71.432288,12.12 70.7523165,12.12 C70.2423378,12.12 69.7323592,11.94 69.7323592,11.4 L68.712402,11.4 C68.5424091,12.66 69.3923735,13.2 70.5823236,13.2 L70.5823236,13.2 Z M74.4921597,13.02 L76.8720599,9.24 L76.8720599,9.24 L76.8720599,13.02 L77.8920171,13.02 L77.8920171,7.8 L76.8720599,7.8 L74.4921597,11.58 L74.4921597,11.58 L74.4921597,7.8 L73.4722024,7.8 L73.4722024,13.02 L74.4921597,13.02 L74.4921597,13.02 Z M82.8218104,7.8 L78.7419815,7.8 L78.7419815,8.7 L80.2719173,8.7 L80.2719173,13.2 L81.2918746,13.2 L81.2918746,8.7 L82.8218104,8.7 L82.8218104,7.8 Z M85.5416964,8.52 C86.2216679,8.52 86.7316465,9.06 86.7316465,9.96 L84.3517463,9.96 C84.3517463,9.24 84.8617249,8.52 85.5416964,8.52 L85.5416964,8.52 Z M86.9016393,11.58 C86.7316465,12.12 86.3916607,12.3 85.7116892,12.3 C84.8617249,12.3 84.3517463,11.76 84.3517463,10.86 L84.3517463,10.86 L87.9215966,10.86 L87.9215966,10.32 C87.9215966,8.7 87.0716322,7.62 85.7116892,7.62 C84.3517463,7.62 83.331789,8.7 83.331789,10.32 C83.331789,11.94 84.1817534,13.02 85.7116892,13.02 C86.9016393,13.02 87.7516037,12.3 87.9215966,11.4 L86.9016393,11.4 L86.9016393,11.58 Z M93.0213828,8.52 C93.5313614,8.52 93.8713471,8.7 93.8713471,9.24 C93.8713471,9.78 93.5313614,9.96 93.0213828,9.96 L92.0014255,9.96 L92.0014255,8.52 L93.0213828,8.52 Z M93.0213828,10.68 C93.7013542,10.68 94.04134,10.86 94.04134,11.4 C94.04134,11.94 93.7013542,12.12 93.1913756,12.12 L92.0014255,12.12 L92.0014255,10.68 L93.0213828,10.68 Z M90.8114754,13.02 L93.1913756,13.02 C94.2113329,13.02 94.8913043,12.48 94.8913043,11.58 C94.8913043,10.86 94.3813257,10.5 93.8713471,10.32 L93.8713471,10.32 C94.3813257,10.14 94.7213115,9.78 94.7213115,9.24 C94.7213115,8.34 94.2113329,7.98 93.1913756,7.98 L90.9814683,7.98 L90.9814683,13.02 L90.8114754,13.02 Z" id="Загрузите-в_4_" fill="#000000" fill-rule="nonzero"></path>
                                <g id="logo_apple_8_" transform="translate(10.760870, 6.000000)" fill="#000000" fill-rule="nonzero">
                                    <path d="M18.0602007,14.35 C18.0602007,11.025 20.8294314,9.45 20.8294314,9.275 C19.2717391,7 16.8486622,6.825 15.9832776,6.65 C13.9063545,6.475 12.0025084,7.875 10.9640468,7.875 C9.92558528,7.875 8.36789298,6.65 6.63712375,6.65 C4.38712375,6.65 2.31020067,8.05 1.27173913,9.975 C-0.97826087,14.175 0.752508361,20.125 3.00250836,23.45 C4.0409699,25.025 5.42558528,26.775 7.15635452,26.775 C8.88712375,26.775 9.40635452,25.725 11.4832776,25.725 C13.5602007,25.725 14.0794314,26.775 15.8102007,26.775 C17.5409699,26.775 18.7525084,25.2 19.7909699,23.45 C21.0025084,21.525 21.5217391,19.775 21.5217391,19.775 C21.5217391,19.775 18.0602007,18.375 18.0602007,14.35" id="Fill-2_8_"></path>
                                    <path d="M14.7717391,4.55 C15.6371237,3.5 16.3294314,1.925 16.1563545,0.35 C14.7717391,0.35 13.2140468,1.225 12.3486622,2.45 C11.4832776,3.5 10.7909699,5.075 10.9640468,6.475 C12.3486622,6.475 13.7332776,5.6 14.7717391,4.55" id="Fill-3_8_"></path>
                                </g>
                            </g>
                        </g>
                    </g>
                </g>
            </g>
        </g>
    </g>
</svg>
