<svg width="135" height="40" xmlns="http://www.w3.org/2000/svg"><g fill="none" fill-rule="evenodd"><rect fill="#FFF" width="135" height="40" rx="5"/><path d="M49.955 30.77h2.207l-4.923-13.43h-2.207l-4.923 13.43h2.207l1.188-3.57h5.093l1.358 3.57ZM46.05 19.72l2.038 5.61h-4.075l2.037-5.61Zm11.884.68c-1.358 0-2.547.68-3.226 1.87h-.17v-1.7h-1.867V34h2.037v-4.76h.17c.51 1.02 1.698 1.7 3.056 1.7 2.546 0 4.244-2.04 4.244-5.27 0-3.23-1.698-5.27-4.244-5.27Zm-.51 8.67c-1.697 0-2.716-1.36-2.716-3.4s1.019-3.4 2.717-3.4c1.697 0 2.716 1.36 2.716 3.4 0 2.21-1.019 3.4-2.716 3.4ZM68.29 20.4c-1.358 0-2.546.68-3.225 1.87h-.17v-1.7h-1.867V34h2.037v-4.76h.17c.509 1.02 1.697 1.7 3.055 1.7 2.547 0 4.244-2.04 4.244-5.27 0-3.23-1.697-5.27-4.244-5.27Zm-.509 8.67c-1.698 0-2.716-1.36-2.716-3.4s1.018-3.4 2.716-3.4c1.698 0 2.716 1.36 2.716 3.4 0 2.21-1.018 3.4-2.716 3.4Zm8.998-2.04c.17 2.38 2.206 3.91 5.092 3.91 3.226 0 5.093-1.53 5.093-4.25 0-2.04-1.188-3.06-3.904-3.74l-1.358-.17c-1.698-.34-2.377-1.02-2.377-1.87 0-1.19 1.019-2.04 2.716-2.04 1.528 0 2.716.85 2.886 2.04h2.037C86.793 18.7 84.926 17 82.21 17c-2.886 0-4.923 1.53-4.923 3.91 0 2.04 1.188 3.23 3.565 3.74l1.698.34c1.697.34 2.546 1.02 2.546 2.04 0 1.19-1.188 2.04-2.886 2.04-1.867 0-3.056-.85-3.226-2.04h-2.206Zm12.053-8.84v2.55h-1.698v1.7h1.698v5.78c0 1.87.849 2.72 3.055 2.72.34 0 .68 0 1.02-.17v-1.7h-.68c-1.019 0-1.358-.51-1.358-1.53v-5.27h2.207v-1.7h-2.207v-2.55H88.83v.17Zm9.167 10.88c-1.698 0-2.716-1.36-2.716-3.57s1.018-3.4 2.716-3.4c1.698 0 2.716 1.36 2.716 3.4 0 2.38-1.018 3.57-2.716 3.57Zm0 1.87c2.886 0 4.753-2.04 4.753-5.27 0-3.23-1.867-5.27-4.753-5.27s-4.753 2.04-4.753 5.27c0 3.23 1.867 5.27 4.753 5.27Zm5.772-.17h2.037v-5.95c0-1.36 1.019-2.38 2.547-2.38.34 0 1.018 0 1.188.17v-2.04h-.849c-1.358 0-2.377.68-2.716 1.7h-.17v-1.53h-1.867v10.03h-.17Zm10.186-8.67c1.528 0 2.376 1.02 2.546 2.55h-5.093c0-1.53 1.019-2.55 2.547-2.55Zm2.376 5.95c-.34.85-1.188 1.19-2.376 1.19-1.528 0-2.547-1.19-2.716-2.89v-.17h7.13v-.68c0-3.23-1.698-5.1-4.584-5.1-2.886 0-4.753 2.04-4.753 5.27 0 3.23 1.697 5.27 4.753 5.27 2.377 0 3.905-1.19 4.414-2.89h-1.868ZM44.743 9.96h.85c.85 0 1.36.36 1.36 1.26 0 .72-.51 1.26-1.36 1.26-.85 0-1.36-.36-1.53-1.08h-1.02c0 1.26 1.02 1.98 2.55 1.98 1.36 0 2.38-.9 2.38-2.16 0-.9-.51-1.62-1.36-1.8.68-.18 1.19-.9 1.19-1.62 0-1.08-.85-1.8-2.21-1.8-1.36 0-2.21.72-2.38 1.98h1.02c0-.72.51-1.08 1.36-1.08.85 0 1.36.36 1.36 1.08 0 .54-.68 1.08-1.36 1.08h-.85v.9Zm5.95 2.34c-.51 0-1.02-.36-1.02-.72 0-.54.34-.72 1.02-.72h1.19v.36c.17.54-.34 1.08-1.19 1.08Zm-.17.9c.68 0 1.36-.36 1.53-.9v.9h1.02V9.6c0-1.08-.85-1.8-2.04-1.8s-2.04.72-2.04 1.62h.85c.17-.54.51-.72 1.02-.72.68 0 1.02.36 1.02.9v.36h-1.36c-1.19 0-1.87.54-1.87 1.62.17.9.85 1.62 1.87 1.62Zm6.8-4.5v-.9h-3.23v5.22h1.02V8.7h2.21Zm3.4-.9c-.68 0-1.36.36-1.53.9v-.9h-1.02v7.02h1.02V12.3c.34.54.85.9 1.53.9 1.19 0 2.04-1.08 2.04-2.7.17-1.62-.68-2.7-2.04-2.7Zm-.17 4.5c-.85 0-1.36-.72-1.36-1.8s.51-1.8 1.36-1.8c.85 0 1.36.72 1.36 1.8s-.51 1.8-1.36 1.8Zm3.74 2.7c1.02 0 1.53-.36 1.87-1.62l1.87-5.58h-1.02l-1.36 4.32-1.36-4.32h-1.02l1.87 5.22v.36c-.17.54-.51.72-.85.72h-.34v.9h.34Zm6.29-1.8c1.19 0 2.04-.72 2.04-1.62 0-.54-.34-1.08-1.02-1.26.51-.18.85-.54.85-1.08 0-.9-.68-1.44-1.87-1.44s-1.87.54-1.87 1.44h1.02c0-.36.51-.72 1.02-.72.68 0 .85.36.85.72 0 .54-.34.72-.85.72h-.68v.72h.68c.68 0 1.02.18 1.02.72s-.34.72-1.02.72c-.51 0-1.02-.18-1.02-.72h-1.02c-.17 1.26.68 1.8 1.87 1.8Zm3.91-.18 2.38-3.78v3.78h1.019V7.8h-1.02l-2.38 3.78V7.8h-1.02v5.22h1.02Zm8.329-5.22h-4.08v.9h1.53v4.5h1.02V8.7h1.53v-.9Zm2.72.72c.68 0 1.19.54 1.19 1.44h-2.38c0-.72.51-1.44 1.19-1.44Zm1.36 3.06c-.17.54-.51.72-1.19.72-.85 0-1.36-.54-1.36-1.44h3.57v-.54c0-1.62-.85-2.7-2.21-2.7-1.36 0-2.38 1.08-2.38 2.7s.85 2.7 2.38 2.7c1.19 0 2.04-.72 2.21-1.62h-1.02v.18Zm6.12-3.06c.51 0 .85.18.85.72s-.34.72-.85.72h-1.02V8.52h1.02Zm0 2.16c.68 0 1.02.18 1.02.72s-.34.72-.85.72h-1.19v-1.44h1.02Zm-2.21 2.34h2.38c1.02 0 1.7-.54 1.7-1.44 0-.72-.51-1.08-1.02-1.26.51-.18.85-.54.85-1.08 0-.9-.51-1.26-1.53-1.26h-2.21v5.04h-.17Z" fill="#000" fill-rule="nonzero"/><g fill="#000" fill-rule="nonzero"><path d="M28.821 20.35c0-3.325 2.77-4.9 2.77-5.075-1.558-2.275-3.981-2.45-4.847-2.625-2.077-.175-3.98 1.225-5.02 1.225-1.038 0-2.595-1.225-4.326-1.225-2.25 0-4.327 1.4-5.365 3.325-2.25 4.2-.52 10.15 1.73 13.475 1.039 1.575 2.423 3.325 4.154 3.325 1.731 0 2.25-1.05 4.327-1.05s2.596 1.05 4.327 1.05c1.73 0 2.942-1.575 3.98-3.325 1.212-1.925 1.732-3.675 1.732-3.675s-3.462-1.4-3.462-5.425M25.533 10.55c.865-1.05 1.557-2.625 1.384-4.2-1.384 0-2.942.875-3.807 2.1-.866 1.05-1.558 2.625-1.385 4.025 1.385 0 2.77-.875 3.808-1.925"/></g></g></svg>