<svg width="135" height="40" xmlns="http://www.w3.org/2000/svg"><defs><linearGradient x1="60.297%" y1="4.913%" x2="27.941%" y2="71.792%" id="a"><stop stop-color="#4696D2" offset="0%"/><stop stop-color="#4598D3" offset=".657%"/><stop stop-color="#3FB9EB" offset="26.01%"/><stop stop-color="#4AC1ED" offset="51.22%"/><stop stop-color="#5CC4E6" offset="76.04%"/><stop stop-color="#60C4E5" offset="100%"/></linearGradient><linearGradient x1="107.632%" y1="49.965%" x2="-128.984%" y2="49.965%" id="b"><stop stop-color="#FFE005" offset="0%"/><stop stop-color="#FBBC0F" offset="40.87%"/><stop stop-color="#F7A418" offset="77.54%"/><stop stop-color="#F59A1A" offset="100%"/></linearGradient><linearGradient x1="86.24%" y1="29.17%" x2="-50.076%" y2="144.224%" id="c"><stop stop-color="#E8404A" offset="0%"/><stop stop-color="#C31262" offset="100%"/></linearGradient><linearGradient x1="-18.943%" y1="-17.116%" x2="41.984%" y2="33.906%" id="d"><stop stop-color="#32A071" offset="0%"/><stop stop-color="#30A771" offset="6.85%"/><stop stop-color="#4FB26F" offset="47.62%"/><stop stop-color="#5FB568" offset="80.09%"/><stop stop-color="#64B664" offset="100%"/></linearGradient></defs><g fill="none" fill-rule="evenodd"><g><rect fill="#FFF" width="135" height="40" rx="5"/><path d="M69.131 21.636a4.251 4.251 0 0 0-4.293 4.293 4.251 4.251 0 0 0 4.293 4.293 4.251 4.251 0 0 0 4.293-4.293c0-2.575-1.889-4.293-4.293-4.293Zm0 6.87c-1.373 0-2.404-1.031-2.404-2.577 0-1.545 1.03-2.575 2.404-2.575 1.374 0 2.404 1.03 2.404 2.575 0 1.546-1.202 2.576-2.404 2.576Zm-9.444-6.87a4.251 4.251 0 0 0-4.293 4.293 4.251 4.251 0 0 0 4.293 4.293 4.251 4.251 0 0 0 4.293-4.293c0-2.575-1.89-4.293-4.293-4.293Zm0 6.87c-1.374 0-2.404-1.031-2.404-2.577 0-1.545 1.03-2.575 2.404-2.575 1.374 0 2.404 1.03 2.404 2.575 0 1.546-1.03 2.576-2.404 2.576ZM48.525 23.01V24.9h4.293c-.172 1.03-.515 1.889-1.03 2.232-.687.515-1.546 1.374-3.263 1.374-2.747 0-4.808-2.06-4.808-4.808 0-2.748 2.06-4.808 4.808-4.808 1.374 0 2.576.687 3.263 1.374l1.374-1.374C52.132 17.859 50.586 17 48.697 17 45.091 17 42 20.09 42 23.697c0 3.606 3.09 6.697 6.697 6.697 2.06 0 3.434-.687 4.636-1.889s1.546-2.92 1.546-4.293c0-.343 0-.858-.172-1.03h-6.182v-.172Zm45.677 1.374c-.343-1.03-1.374-2.748-3.606-2.748-2.232 0-3.95 1.718-3.95 4.293a4.251 4.251 0 0 0 4.293 4.293c1.89 0 3.091-1.202 3.606-1.889l-1.373-1.03c-.515.687-1.03 1.202-2.06 1.202-1.031 0-1.546-.343-2.061-1.374l5.666-2.404-.515-.343Zm-5.838 1.374c0-1.546 1.373-2.576 2.232-2.576.687 0 1.374.343 1.545.858l-3.777 1.718Zm-4.637 4.293h1.89V17.343h-1.89v12.708Zm-3.09-7.384c-.516-.515-1.374-1.03-2.233-1.03-2.06 0-4.121 1.888-4.121 4.292s1.889 4.293 4.121 4.293c1.03 0 1.889-.515 2.232-1.03h.172v.515c0 1.546-.859 2.576-2.232 2.576-1.03 0-1.89-.859-2.06-1.546l-1.89.687c.515 1.03 1.717 2.576 3.778 2.576 2.232 0 3.95-1.374 3.95-4.465v-7.727h-1.89v.859h.172Zm-2.233 5.838c-1.374 0-2.404-1.03-2.404-2.576 0-1.545 1.03-2.575 2.404-2.575 1.374 0 2.404 1.03 2.404 2.575 0 1.546-1.03 2.576-2.404 2.576Zm24.556-11.162h-4.465V29.88h1.889V25.07h2.576c2.06 0 4.12-1.546 4.12-3.95.173-2.232-1.888-3.778-4.12-3.778Zm.171 6.01h-2.747v-4.292h2.747c1.374 0 2.233 1.202 2.233 2.06-.172 1.202-.859 2.233-2.233 2.233Zm11.677-1.717c-1.374 0-2.747.687-3.263 1.89l1.718.686c.343-.687 1.03-.858 1.717-.858 1.03 0 1.889.686 2.06 1.545v.172c-.343-.172-1.03-.515-1.888-.515-1.89 0-3.607 1.03-3.607 2.747 0 1.717 1.546 2.748 3.091 2.748 1.374 0 1.89-.687 2.404-1.203h.172v1.03h1.889v-4.807c-.515-2.06-2.232-3.435-4.293-3.435Zm-.343 6.87c-.687 0-1.546-.344-1.546-1.031 0-1.03 1.03-1.374 2.06-1.374.86 0 1.203.172 1.718.343-.172 1.374-1.202 2.061-2.232 2.061Zm10.646-6.526-2.06 5.495h-.172l-2.233-5.495h-2.06l3.262 7.727L119.96 34h1.888L127 22.152h-1.889v-.172Zm-17 8.07H110V17.344h-1.889v12.708Z" fill="#000" fill-rule="nonzero"/><g fill-rule="nonzero"><path d="M1.56.525c-.336.35-.504.875-.504 1.4v22.75c0 .7.168 1.05.504 1.4l.168.175 12.264-12.775V13.3L1.56.525Z" fill="url(#a)" transform="translate(9 6)"/><path d="m17.856 17.85-4.032-4.2v-.35l4.032-4.2.168.175 4.872 2.8c1.344.875 1.344 2.1 0 2.975l-5.04 2.8Z" fill="url(#b)" transform="translate(9 6)"/><path d="m18.024 17.675-4.2-4.375L1.56 26.25c.504.525 1.176.525 2.016.175l14.448-8.75" fill="url(#c)" transform="translate(9 6)"/><path d="M18.024 9.1 3.576.525C2.736 0 2.064.175 1.56.7l12.264 12.775 4.2-4.375Z" fill="url(#d)" transform="translate(9 6)"/><g fill="#010202"><path d="m26.987 23.631-14.28 8.4c-.84.525-1.512.35-2.016 0l-.168.175.168.175c.504.35 1.176.525 2.016 0l14.28-8.75Z" opacity=".2"/><path d="M10.523 32.031c-.336-.35-.336-.875-.336-1.4v.175c0 .525.168 1.05.336 1.225Z" opacity=".12"/></g><path d="m31.896 20.7-5.04 2.975.168.175 4.872-3.15c.672-.175 1.008-.7 1.008-1.225 0 .525-.504.875-1.008 1.225Z" fill="#010202" opacity=".12"/><path d="m12.576 6.7 19.32 11.375c.672.35 1.008.875 1.008 1.4 0-.525-.336-1.05-1.008-1.4L12.576 6.7c-1.344-.875-2.52-.175-2.52 1.4v.175c.168-1.75 1.176-2.45 2.52-1.575Z" fill="#FFF" opacity=".25"/></g></g><g fill="#000" fill-rule="nonzero"><path d="M48.035 5.85H43.47v2.88c0 .91-.176 1.517-.702 1.82h-.703v2.123h1.23V11.46h4.389v1.213h1.229V10.55h-.702v-4.7h-.176Zm-3.512 2.577V6.911h2.107v3.639h-2.633c.35-.455.526-1.213.526-1.82v-.303ZM52.337 5.85c-.856 0-1.712.34-2.397 1.023-.685.682-1.027 1.364-1.027 2.388 0 .853.342 1.706 1.027 2.388.685.683 1.37 1.024 2.397 1.024 1.027 0 1.712-.341 2.397-1.024.684-.682 1.027-1.364 1.027-2.388 0-1.024-.343-1.706-1.027-2.388-.685-.683-1.37-1.024-2.397-1.024Zm2.225 3.24c0 .512-.17 1.195-.684 1.536-.343.512-1.027.682-1.37.682-.513 0-1.027-.17-1.54-.682-.343-.341-.685-.853-.685-1.536 0-.511.17-1.194.684-1.535.343-.341.856-.682 1.37-.682.514 0 1.027.17 1.54.682.343.341.685.853.685 1.535ZM60.624 10.573c-.503.525-1.006.875-1.677.875-.503 0-1.174-.175-1.51-.7-.335-.35-.67-.875-.67-1.574 0-.7.168-1.225.67-1.575.504-.525.84-.7 1.51-.7.671 0 1.174.35 1.51.7l.167.175.839-.875-.168-.175c-.503-.525-1.342-.875-2.18-.875-.839 0-1.677.35-2.348 1.05-.67.525-1.006 1.4-1.006 2.275 0 .874.335 1.75 1.006 2.45.67.699 1.342 1.049 2.348 1.049.503 0 1.006-.175 1.342-.35.335-.175.67-.525 1.006-.875l.167-.175-.838-.875-.168.175ZM71.413 5.85h-1.201L69.01 8.998l-1.373-3.15H61.63v1.225h1.717v5.424h1.03v-.35h.171v-5.25h1.716v-.874l2.06 4.724-.172.35c0 .175-.171.175-.343.35H67.466l-.344-.175-.343 1.225h.172c.171.175.515.175.686.175.687 0 1.202-.525 1.545-1.225l2.231-5.074v-.525ZM72.391 11.698h1.223v-4.9h2.446v4.9h1.223V5.85H72.39zM81.972 8.22h-2.53V5.85H78.26v5.848h1.18v-2.53h2.53v2.53h1.181V5.85h-1.18zM87.554 5.85c-.856 0-1.712.34-2.396 1.023-.685.682-1.028 1.364-1.028 2.388 0 1.024.343 1.706 1.028 2.388.684.683 1.37 1.024 2.396 1.024.856 0 1.712-.341 2.397-1.024a5.086 5.086 0 0 0 1.027-2.388c0-1.024-.342-1.706-1.027-2.388-.685-.683-1.37-1.024-2.397-1.024Zm2.055 3.24c0 .512-.172 1.195-.685 1.536-.342.341-.856.682-1.37.682-.513 0-1.027-.17-1.37-.682-.342-.341-.684-1.024-.684-1.536 0-.511.171-1.194.685-1.535.342-.341.856-.682 1.37-.682.513 0 1.027.17 1.54.682.342.341.514.853.514 1.535ZM97.283 9.081l-.363-.307c.181-.154.363-.308.363-.462v-.154c0-.154.18-.462.18-.616 0-.462-.18-.923-.543-1.231-.362-.308-.906-.462-1.449-.462h-2.536v5.85h2.717c.725 0 1.087-.309 1.63-.463.363-.307.544-.77.544-1.231l-.543-.924Zm-1.63 1.694h-1.45v-1.54h1.45c.18 0 .361 0 .543.154.18.154.18.308.18.462 0 .154 0 .308-.18.462-.182.308-.363.462-.544.462Zm.361-2.771c-.18.154-.362.154-.543.154h-1.268V7.08h1.268c.181 0 .362 0 .543.154.182.154.182.308.182.462 0 .154 0 .154-.182.308Z"/></g></g></svg>