<?xml version="1.0" encoding="UTF-8"?>
<svg width="135px" height="40px" viewBox="0 0 135 40" version="1.1" xmlns="http://www.w3.org/2000/svg">
    <!-- Generator: Sketch 63.1 (92452) - https://sketch.com -->
    <title>Group 5</title>
    <desc>Created with Sketch.</desc>
    <defs>
        <linearGradient x1="60.2972336%" y1="4.9130102%" x2="27.9406675%" y2="71.7922619%" id="linearGradient-1">
            <stop stop-color="#4696D2" offset="0%"></stop>
            <stop stop-color="#4598D3" offset="0.657445%"></stop>
            <stop stop-color="#3FB9EB" offset="26.01%"></stop>
            <stop stop-color="#4AC1ED" offset="51.22%"></stop>
            <stop stop-color="#5CC4E6" offset="76.04%"></stop>
            <stop stop-color="#60C4E5" offset="100%"></stop>
        </linearGradient>
        <linearGradient x1="107.632334%" y1="49.965%" x2="-128.983714%" y2="49.965%" id="linearGradient-2">
            <stop stop-color="#FFE005" offset="0%"></stop>
            <stop stop-color="#FBBC0F" offset="40.87%"></stop>
            <stop stop-color="#F7A418" offset="77.54%"></stop>
            <stop stop-color="#F59A1A" offset="100%"></stop>
        </linearGradient>
        <linearGradient x1="86.2404623%" y1="29.1700042%" x2="-50.0755309%" y2="144.224248%" id="linearGradient-3">
            <stop stop-color="#E8404A" offset="0%"></stop>
            <stop stop-color="#C31262" offset="100%"></stop>
        </linearGradient>
        <linearGradient x1="-18.9430805%" y1="-17.1159896%" x2="41.9835476%" y2="33.9059734%" id="linearGradient-4">
            <stop stop-color="#32A071" offset="0%"></stop>
            <stop stop-color="#30A771" offset="6.85%"></stop>
            <stop stop-color="#4FB26F" offset="47.62%"></stop>
            <stop stop-color="#5FB568" offset="80.09%"></stop>
            <stop stop-color="#64B664" offset="100%"></stop>
        </linearGradient>
    </defs>
    <g id="Page-1" stroke="none" stroke-width="1" fill="none" fill-rule="evenodd">
        <g id="Боковое-меню_меню-развернуто" transform="translate(-170.000000, -1208.000000)">
            <g id="Group-14" transform="translate(15.000000, 959.000000)">
                <g id="Group-11" transform="translate(0.000000, 110.000000)">
                    <g id="Group-6" transform="translate(0.000000, 100.000000)">
                        <g id="Group-3" transform="translate(0.000000, 39.000000)">
                            <g id="Group-5" transform="translate(155.000000, 0.000000)">
                                <g id="Group_8_" transform="translate(-0.000000, 0.000000)">
                                    <rect id="Rectangle-8" fill="#FFFFFF" x="0" y="0" width="135" height="40" rx="5"></rect>
                                    <path d="M69.1313131,21.6363636 C66.7272727,21.6363636 64.8383838,23.5252525 64.8383838,25.9292929 C64.8383838,28.3333333 66.7272727,30.2222222 69.1313131,30.2222222 C71.5353535,30.2222222 73.4242424,28.3333333 73.4242424,25.9292929 C73.4242424,23.3535354 71.5353535,21.6363636 69.1313131,21.6363636 L69.1313131,21.6363636 Z M69.1313131,28.5050505 C67.7575758,28.5050505 66.7272727,27.4747475 66.7272727,25.9292929 C66.7272727,24.3838384 67.7575758,23.3535354 69.1313131,23.3535354 C70.5050505,23.3535354 71.5353535,24.3838384 71.5353535,25.9292929 C71.5353535,27.4747475 70.3333333,28.5050505 69.1313131,28.5050505 L69.1313131,28.5050505 Z M59.6868687,21.6363636 C57.2828283,21.6363636 55.3939394,23.5252525 55.3939394,25.9292929 C55.3939394,28.3333333 57.2828283,30.2222222 59.6868687,30.2222222 C62.0909091,30.2222222 63.979798,28.3333333 63.979798,25.9292929 C63.979798,23.3535354 62.0909091,21.6363636 59.6868687,21.6363636 L59.6868687,21.6363636 Z M59.6868687,28.5050505 C58.3131313,28.5050505 57.2828283,27.4747475 57.2828283,25.9292929 C57.2828283,24.3838384 58.3131313,23.3535354 59.6868687,23.3535354 C61.0606061,23.3535354 62.0909091,24.3838384 62.0909091,25.9292929 C62.0909091,27.4747475 61.0606061,28.5050505 59.6868687,28.5050505 L59.6868687,28.5050505 Z M48.5252525,23.010101 L48.5252525,24.8989899 L52.8181818,24.8989899 C52.6464646,25.9292929 52.3030303,26.7878788 51.7878788,27.1313131 C51.1010101,27.6464646 50.2424242,28.5050505 48.5252525,28.5050505 C45.7777778,28.5050505 43.7171717,26.4444444 43.7171717,23.6969697 C43.7171717,20.9494949 45.7777778,18.8888889 48.5252525,18.8888889 C49.8989899,18.8888889 51.1010101,19.5757576 51.7878788,20.2626263 L53.1616162,18.8888889 C52.1313131,17.8585859 50.5858586,17 48.6969697,17 C45.0909091,17 42,20.0909091 42,23.6969697 C42,27.3030303 45.0909091,30.3939394 48.6969697,30.3939394 C50.7575758,30.3939394 52.1313131,29.7070707 53.3333333,28.5050505 C54.5353535,27.3030303 54.8787879,25.5858586 54.8787879,24.2121212 C54.8787879,23.8686869 54.8787879,23.3535354 54.7070707,23.1818182 L48.5252525,23.1818182 L48.5252525,23.010101 Z M94.2020202,24.3838384 C93.8585859,23.3535354 92.8282828,21.6363636 90.5959596,21.6363636 C88.3636364,21.6363636 86.6464646,23.3535354 86.6464646,25.9292929 C86.6464646,28.3333333 88.5353535,30.2222222 90.9393939,30.2222222 C92.8282828,30.2222222 94.030303,29.020202 94.5454545,28.3333333 L93.1717172,27.3030303 C92.6565657,27.989899 92.1414141,28.5050505 91.1111111,28.5050505 C90.0808081,28.5050505 89.5656566,28.1616162 89.0505051,27.1313131 L94.7171717,24.7272727 L94.2020202,24.3838384 L94.2020202,24.3838384 Z M88.3636364,25.7575758 C88.3636364,24.2121212 89.7373737,23.1818182 90.5959596,23.1818182 C91.2828283,23.1818182 91.969697,23.5252525 92.1414141,24.040404 L88.3636364,25.7575758 L88.3636364,25.7575758 Z M83.7272727,30.0505051 L85.6161616,30.0505051 L85.6161616,17.3434343 L83.7272727,17.3434343 L83.7272727,30.0505051 L83.7272727,30.0505051 Z M80.6363636,22.6666667 L80.6363636,22.6666667 C80.1212121,22.1515152 79.2626263,21.6363636 78.4040404,21.6363636 C76.3434343,21.6363636 74.2828283,23.5252525 74.2828283,25.9292929 C74.2828283,28.3333333 76.1717172,30.2222222 78.4040404,30.2222222 C79.4343434,30.2222222 80.2929293,29.7070707 80.6363636,29.1919192 L80.8080808,29.1919192 L80.8080808,29.7070707 C80.8080808,31.2525253 79.9494949,32.2828283 78.5757576,32.2828283 C77.5454545,32.2828283 76.6868687,31.4242424 76.5151515,30.7373737 L74.6262626,31.4242424 C75.1414141,32.4545455 76.3434343,34 78.4040404,34 C80.6363636,34 82.3535354,32.6262626 82.3535354,29.5353535 L82.3535354,21.8080808 L80.4646465,21.8080808 L80.4646465,22.6666667 L80.6363636,22.6666667 Z M78.4040404,28.5050505 C77.030303,28.5050505 76,27.4747475 76,25.9292929 C76,24.3838384 77.030303,23.3535354 78.4040404,23.3535354 C79.7777778,23.3535354 80.8080808,24.3838384 80.8080808,25.9292929 C80.8080808,27.4747475 79.7777778,28.5050505 78.4040404,28.5050505 L78.4040404,28.5050505 Z M102.959596,17.3434343 L98.4949495,17.3434343 L98.4949495,29.8787879 L100.383838,29.8787879 L100.383838,25.0707071 L102.959596,25.0707071 C105.020202,25.0707071 107.080808,23.5252525 107.080808,21.1212121 C107.252525,18.8888889 105.191919,17.3434343 102.959596,17.3434343 L102.959596,17.3434343 Z M103.131313,23.3535354 L100.383838,23.3535354 L100.383838,19.0606061 L103.131313,19.0606061 C104.505051,19.0606061 105.363636,20.2626263 105.363636,21.1212121 C105.191919,22.3232323 104.505051,23.3535354 103.131313,23.3535354 L103.131313,23.3535354 Z M114.808081,21.6363636 C113.434343,21.6363636 112.060606,22.3232323 111.545455,23.5252525 L113.262626,24.2121212 C113.606061,23.5252525 114.292929,23.3535354 114.979798,23.3535354 C116.010101,23.3535354 116.868687,24.040404 117.040404,24.8989899 L117.040404,25.0707071 C116.69697,24.8989899 116.010101,24.5555556 115.151515,24.5555556 C113.262626,24.5555556 111.545455,25.5858586 111.545455,27.3030303 C111.545455,29.020202 113.090909,30.0505051 114.636364,30.0505051 C116.010101,30.0505051 116.525253,29.3636364 117.040404,28.8484848 L117.212121,28.8484848 L117.212121,29.8787879 L119.10101,29.8787879 L119.10101,25.0707071 C118.585859,23.010101 116.868687,21.6363636 114.808081,21.6363636 L114.808081,21.6363636 Z M114.464646,28.5050505 C113.777778,28.5050505 112.919192,28.1616162 112.919192,27.4747475 C112.919192,26.4444444 113.949495,26.1010101 114.979798,26.1010101 C115.838384,26.1010101 116.181818,26.2727273 116.69697,26.4444444 C116.525253,27.8181818 115.494949,28.5050505 114.464646,28.5050505 L114.464646,28.5050505 Z M125.111111,21.979798 L123.050505,27.4747475 L122.878788,27.4747475 L120.646465,21.979798 L118.585859,21.979798 L121.848485,29.7070707 L119.959596,34 L121.848485,34 L127,22.1515152 L125.111111,22.1515152 L125.111111,21.979798 Z M108.111111,30.0505051 L110,30.0505051 L110,17.3434343 L108.111111,17.3434343 L108.111111,30.0505051 L108.111111,30.0505051 Z" id="Shape_47_" fill="#000000" fill-rule="nonzero"></path>
                                    <g id="Shape_46_" transform="translate(9.000000, 6.000000)" fill-rule="nonzero">
                                        <path d="M1.56,0.525 C1.224,0.875 1.056,1.4 1.056,1.925 L1.056,24.675 C1.056,25.375 1.224,25.725 1.56,26.075 L1.728,26.25 L13.992,13.475 L13.992,13.475 L13.992,13.3 L1.56,0.525 L1.56,0.525 L1.56,0.525 Z" id="Shape" fill="url(#linearGradient-1)"></path>
                                        <path d="M17.856,17.85 L13.824,13.65 L13.824,13.475 L13.824,13.3 L17.856,9.1 L18.024,9.275 L22.896,12.075 C24.24,12.95 24.24,14.175 22.896,15.05 L17.856,17.85 L17.856,17.85 L17.856,17.85 Z" id="Shape" fill="url(#linearGradient-2)"></path>
                                        <path d="M18.024,17.675 L13.824,13.3 L1.56,26.25 C2.064,26.775 2.736,26.775 3.576,26.425 L18.024,17.675" id="Shape" fill="url(#linearGradient-3)"></path>
                                        <path d="M18.024,9.1 L3.576,0.525 C2.736,-7.77156117e-16 2.064,0.175 1.56,0.7 L13.824,13.475 L18.024,9.1 L18.024,9.1 Z" id="Shape" fill="url(#linearGradient-4)"></path>
                                        <g id="Group" transform="translate(0.634667, 17.406250)" fill="#010202">
                                            <path d="M17.352,0.225 L3.072,8.625 C2.232,9.15 1.56,8.975 1.056,8.625 L1.056,8.625 L0.888,8.8 L0.888,8.8 L1.056,8.975 L1.056,8.975 C1.56,9.325 2.232,9.5 3.072,8.975 L17.352,0.225 L17.352,0.225 L17.352,0.225 Z" id="Shape" opacity="0.2"></path>
                                            <path d="M0.888,8.625 C0.552,8.275 0.552,7.75 0.552,7.225 L0.552,7.4 C0.552,7.925 0.72,8.45 0.888,8.625 L0.888,8.625 L0.888,8.625 L0.888,8.625 Z" id="Shape" opacity="0.12"></path>
                                        </g>
                                        <path d="M22.896,14.7 L17.856,17.675 L18.024,17.85 L22.896,14.7 C23.568,14.525 23.904,14 23.904,13.475 L23.904,13.475 C23.904,14 23.4,14.35 22.896,14.7 L22.896,14.7 Z" id="Shape" fill="#010202" opacity="0.12"></path>
                                        <path d="M3.576,0.7 L22.896,12.075 C23.568,12.425 23.904,12.95 23.904,13.475 L23.904,13.475 C23.904,12.95 23.568,12.425 22.896,12.075 L3.576,0.7 C2.232,-0.175 1.056,0.525 1.056,2.1 L1.056,2.275 C1.224,0.525 2.232,-0.175 3.576,0.7 L3.576,0.7 Z" id="Shape" fill="#FFFFFF" opacity="0.25"></path>
                                    </g>
                                </g>
                                <g id="Group" transform="translate(42.065217, 5.849057)" fill="#000000" fill-rule="nonzero">
                                    <path d="M5.96989967,0 L1.40468227,0 L1.40468227,2.88120196 C1.40468227,3.79105521 1.22909699,4.39762404 0.702341137,4.70090846 L0,4.70090846 L0,6.82389937 L1.22909699,6.82389937 L1.22909699,5.61076171 L5.6187291,5.61076171 L5.6187291,6.82389937 L6.84782609,6.82389937 L6.84782609,4.70090846 L6.14548495,4.70090846 L6.14548495,0 L5.96989967,0 Z M2.45819398,2.57791754 L2.45819398,1.06149546 L4.56521739,1.06149546 L4.56521739,4.70090846 L1.93143813,4.70090846 C2.2826087,4.24598183 2.45819398,3.48777079 2.45819398,2.88120196 L2.45819398,2.57791754 Z" id="Shape"></path>
                                    <path d="M10.2717391,0 C9.41576087,0 8.55978261,0.341194969 7.875,1.02358491 C7.19021739,1.70597484 6.84782609,2.38836478 6.84782609,3.41194969 C6.84782609,4.26493711 7.19021739,5.11792453 7.875,5.80031447 C8.55978261,6.4827044 9.24456522,6.82389937 10.2717391,6.82389937 C11.298913,6.82389937 11.9836957,6.4827044 12.6684783,5.80031447 C13.3532609,5.11792453 13.6956522,4.43553459 13.6956522,3.41194969 C13.6956522,2.38836478 13.3532609,1.70597484 12.6684783,1.02358491 C11.9836957,0.341194969 11.298913,0 10.2717391,0 Z M12.4972826,3.2413522 C12.4972826,3.75314465 12.326087,4.43553459 11.8125,4.77672956 C11.4701087,5.28852201 10.7853261,5.4591195 10.4429348,5.4591195 C9.92934783,5.4591195 9.41576087,5.28852201 8.90217391,4.77672956 L8.90217391,4.77672956 C8.55978261,4.43553459 8.2173913,3.92374214 8.2173913,3.2413522 C8.2173913,2.72955975 8.38858696,2.04716981 8.90217391,1.70597484 C9.24456522,1.36477987 9.75815217,1.02358491 10.2717391,1.02358491 C10.7853261,1.02358491 11.298913,1.19418239 11.8125,1.70597484 C12.1548913,2.04716981 12.4972826,2.55896226 12.4972826,3.2413522 Z" id="Shape"></path>
                                    <path d="M18.5590062,4.72423803 C18.0559006,5.24915336 17.552795,5.59909692 16.8819876,5.59909692 C16.378882,5.59909692 15.7080745,5.42412514 15.3726708,4.8992098 C15.0372671,4.54926625 14.7018634,4.02435091 14.7018634,3.3244638 C14.7018634,2.62457668 14.8695652,2.09966134 15.3726708,1.74971779 C15.8757764,1.22480245 16.2111801,1.04983067 16.8819876,1.04983067 C17.552795,1.04983067 18.0559006,1.39977423 18.3913043,1.74971779 L18.5590062,1.92468957 L19.3975155,1.04983067 L19.2298137,0.874858894 C18.7267081,0.349943557 17.8881988,0 17.0496894,0 C16.2111801,0 15.3726708,0.349943557 14.7018634,1.04983067 C14.0310559,1.57474601 13.6956522,2.4496049 13.6956522,3.3244638 C13.6956522,4.19932269 14.0310559,5.07418158 14.7018634,5.7740687 C15.3726708,6.47395581 16.0434783,6.82389937 17.0496894,6.82389937 C17.552795,6.82389937 18.0559006,6.64892759 18.3913043,6.47395581 C18.7267081,6.29898403 19.0621118,5.94904048 19.3975155,5.59909692 L19.5652174,5.42412514 L18.7267081,4.54926625 L18.5590062,4.72423803 Z" id="Shape"></path>
                                    <path d="M29.3478261,0 L28.1464531,0 L26.9450801,3.14949202 L25.5720824,0 L24.1990847,0 L24.1990847,0 L19.5652174,0 L19.5652174,1.22480245 L21.2814645,1.22480245 L21.2814645,6.64892759 L22.3112128,6.64892759 L22.3112128,6.29898403 L22.4828375,6.29898403 L22.4828375,1.04983067 L24.1990847,1.04983067 L24.1990847,0.174971779 L26.2585812,4.8992098 L26.0869565,5.24915336 C26.0869565,5.42412514 25.9153318,5.42412514 25.7437071,5.59909692 C25.7437071,5.59909692 25.7437071,5.59909692 25.5720824,5.59909692 C25.4004577,5.59909692 25.4004577,5.59909692 25.4004577,5.59909692 L25.0572082,5.42412514 L24.7139588,6.64892759 L24.8855835,6.64892759 C25.0572082,6.82389937 25.4004577,6.82389937 25.5720824,6.82389937 C26.2585812,6.82389937 26.7734554,6.29898403 27.1167048,5.59909692 L29.3478261,0.524915336 L29.3478261,0 L29.3478261,0 Z" id="Shape"></path>
                                    <polygon id="Shape" points="30.326087 5.8490566 31.548913 5.8490566 31.548913 0.948495665 33.9945652 0.948495665 33.9945652 5.8490566 35.2173913 5.8490566 35.2173913 0 30.326087 0"></polygon>
                                    <polygon id="Shape" points="39.9062969 2.37123916 37.3763118 2.37123916 37.3763118 0 36.1956522 0 36.1956522 5.8490566 37.3763118 5.8490566 37.3763118 3.31973483 39.9062969 3.31973483 39.9062969 5.8490566 41.0869565 5.8490566 41.0869565 0 39.9062969 0"></polygon>
                                    <path d="M45.4891304,0 C44.6331522,0 43.7771739,0.341194969 43.0923913,1.02358491 C42.4076087,1.70597484 42.0652174,2.38836478 42.0652174,3.41194969 C42.0652174,4.43553459 42.4076087,5.11792453 43.0923913,5.80031447 C43.7771739,6.4827044 44.4619565,6.82389937 45.4891304,6.82389937 C46.3451087,6.82389937 47.201087,6.4827044 47.8858696,5.80031447 L47.8858696,5.80031447 C48.3994565,5.11792453 48.7418478,4.43553459 48.9130435,3.41194969 C48.9130435,2.38836478 48.5706522,1.70597484 47.8858696,1.02358491 C47.201087,0.341194969 46.5163043,0 45.4891304,0 Z M47.5434783,3.2413522 C47.5434783,3.75314465 47.3722826,4.43553459 46.8586957,4.77672956 C46.5163043,5.11792453 46.0027174,5.4591195 45.4891304,5.4591195 C44.9755435,5.4591195 44.4619565,5.28852201 44.1195652,4.77672956 L44.1195652,4.77672956 C43.7771739,4.43553459 43.4347826,3.75314465 43.4347826,3.2413522 C43.4347826,2.72955975 43.6059783,2.04716981 44.1195652,1.70597484 C44.4619565,1.36477987 44.9755435,1.02358491 45.4891304,1.02358491 C46.0027174,1.02358491 46.5163043,1.19418239 47.0298913,1.70597484 C47.3722826,2.04716981 47.5434783,2.55896226 47.5434783,3.2413522 Z" id="Shape"></path>
                                    <path d="M55.2173913,3.23237339 C55.0362319,3.07845084 55.0362319,3.07845084 54.8550725,2.9245283 C55.0362319,2.77060576 55.2173913,2.61668322 55.2173913,2.46276068 L55.2173913,2.30883813 C55.2173913,2.15491559 55.3985507,1.84707051 55.3985507,1.69314796 C55.3985507,1.23138034 55.2173913,0.769612711 54.8550725,0.461767627 C54.4927536,0.153922542 53.9492754,0 53.4057971,0 L50.8695652,0 L50.8695652,5.8490566 L53.5869565,5.8490566 C54.3115942,5.8490566 54.673913,5.54121152 55.2173913,5.38728898 C55.5797101,5.07944389 55.7608696,4.61767627 55.7608696,4.15590864 C55.5797101,3.84806356 55.3985507,3.54021847 55.2173913,3.23237339 Z M53.5869565,4.92552135 L52.1376812,4.92552135 L52.1376812,3.38629593 L53.5869565,3.38629593 C53.7681159,3.38629593 53.9492754,3.38629593 54.1304348,3.54021847 C54.3115942,3.69414101 54.3115942,3.84806356 54.3115942,4.0019861 C54.3115942,4.15590864 54.3115942,4.30983118 54.1304348,4.46375372 C53.9492754,4.77159881 53.7681159,4.92552135 53.5869565,4.92552135 Z M53.9492754,2.15491559 C53.7681159,2.30883813 53.5869565,2.30883813 53.4057971,2.30883813 L52.1376812,2.30883813 L52.1376812,1.23138034 L53.4057971,1.23138034 C53.5869565,1.23138034 53.7681159,1.23138034 53.9492754,1.38530288 C54.1304348,1.53922542 54.1304348,1.69314796 54.1304348,1.84707051 C54.1304348,2.00099305 54.1304348,2.00099305 53.9492754,2.15491559 Z" id="Shape"></path>
                                </g>
                            </g>
                        </g>
                    </g>
                </g>
            </g>
        </g>
    </g>
</svg>
