<svg xmlns="http://www.w3.org/2000/svg" xmlns:xlink="http://www.w3.org/1999/xlink" width="25" height="25" viewBox="0 0 867 867" version="1.1">
    <g id="Page-1" stroke="none" stroke-width="1" fill="none" fill-rule="evenodd">
        <circle id="Oval" fill="#FF5E3C" cx="433.5" cy="433.5" r="433.5"/>
        <g id="pig-3" transform="translate(151.000000, 220.000000)" fill="#FFFFFF">
            <path d="M515.514124,207.15349 C578.3009,141.695105 563.741104,22.4372282 563.091133,17.3916984 L561.42703,4.49045632 L548.568856,2.51328829 C544.289419,1.85460005 447.200937,-12.3728452 377.443247,34.8519016 C347.077784,19.8234386 315.135396,12.200529 282.5,12.200529 C249.8635,12.200529 217.922216,19.8234386 187.556753,34.8519016 C117.800167,-12.3706385 20.7083737,1.85570339 16.4311438,2.51549495 L3.57186638,4.49045632 L1.90886706,17.3928018 C1.25889586,22.4383316 -13.3009005,141.696209 49.4858762,207.154593 L49.6911302,206.957097 C43.6924147,229.060115 40.5407717,251.702661 40.5407717,274.168674 C40.5407717,338.136459 65.4714158,392.499753 112.63571,431.383322 C156.13964,467.24818 216.465574,487 282.5,487 C348.534426,487 408.86036,467.24818 452.363187,431.383322 C499.528584,392.50196 524.458125,338.136459 524.458125,274.168674 C524.458125,251.702661 521.306482,229.060115 515.307766,206.955994 L515.514124,207.15349 Z M35.1313339,35.3693636 C59.2354442,33.7022314 111.221002,33.337029 153.920468,55.1134607 C138.42489,66.2383409 123.963306,79.3105992 110.702349,94.2474858 C90.8533981,116.608683 74.7850948,142.013968 63.0503006,168.972742 C34.0256104,125.877761 33.665864,62.7959501 35.1313339,35.3693636 Z M430.361275,404.701484 C393.037038,435.472265 340.525103,452.417213 282.5,452.417213 C224.474897,452.417213 171.962962,435.472265 134.638725,404.701484 C95.7066635,372.605603 75.1271849,327.467254 75.1271849,274.16757 C75.1271849,218.403046 97.5230516,161.192056 136.570982,117.202274 C176.882439,71.7914026 228.706883,46.7811097 282.5,46.7811097 C336.293117,46.7811097 388.117561,71.7902993 428.429018,117.202274 C467.476948,161.192056 489.872815,218.40415 489.872815,274.16757 C489.871712,327.467254 469.293336,372.606707 430.361275,404.701484 Z M454.295444,94.2485891 C441.03559,79.3105992 426.57511,66.2372375 411.077325,55.1134607 C453.801069,33.3270991 505.818628,33.7055414 529.894047,35.3715702 C530.506499,46.5593403 530.812173,63.710611 528.938402,83.1468789 C524.94919,124.546041 513.54214,151.600805 501.936457,168.950676 C490.20387,141.999625 474.138877,116.602063 454.295444,94.2485891 Z" id="Shape" fill-rule="nonzero"/>
            <path d="M224.492344,194 C236.909343,194 247,183.700751 247,170.996136 C247,158.289314 236.909343,148 224.492344,148 C212.091751,148 202,158.289314 202,170.996136 C202,183.700751 212.091751,194 224.492344,194 Z" id="Path"/>
            <path d="M340.007767,194 C352.69616,194 363,183.703406 363,171 C363,158.296594 352.69505,148 340.007767,148 C327.30495,148 317,158.296594 317,171 C317,183.703406 327.30495,194 340.007767,194 Z" id="Path"/>
            <path d="M254.496174,318 C247.055625,318 241,324.039573 241,331.497302 C241,338.953951 247.054532,345 254.496174,345 C261.946561,345 268,338.955031 268,331.497302 C268,324.040652 261.946561,318 254.496174,318 Z" id="Path"/>
            <path d="M310.504339,319 C303.048095,319 297,325.26801 297,333 C297,340.73199 303.04918,347 310.504339,347 C317.951905,347 324,340.73199 324,333 C323.998915,325.26801 317.951905,319 310.504339,319 Z" id="Path"/>
            <path d="M356.816425,269.847375 C336.773931,254.46945 310.3824,246 282.499448,246 C254.6176,246 228.226069,254.468346 208.183575,269.847375 C186.784439,286.266318 175,308.517392 175,332.500552 C175,356.483712 186.785544,378.734786 208.183575,395.153729 C228.224964,410.53055 254.616495,419 282.499448,419 C310.381295,419 336.772826,410.531654 356.816425,395.153729 C378.214456,378.734786 390,356.483712 390,332.500552 C389.998895,308.517392 378.214456,286.267422 356.816425,269.847375 Z M335.728831,367.710812 C321.703946,378.473151 302.799351,384.400221 282.500552,384.400221 C262.201754,384.400221 243.299368,378.473151 229.272274,367.710812 C216.602925,357.98949 209.626387,345.485129 209.626387,332.501656 C209.626387,319.517079 216.602925,307.011614 229.272274,297.291396 C243.298264,286.530161 262.201754,280.601987 282.500552,280.601987 C302.799351,280.601987 321.702841,286.530161 335.728831,297.291396 C348.399285,307.012718 355.374718,319.517079 355.374718,332.501656 C355.374718,345.486233 348.397075,357.98949 335.728831,367.710812 Z" id="Shape" fill-rule="nonzero"/>
        </g>
    </g>
</svg>