<svg xmlns="http://www.w3.org/2000/svg" xmlns:xlink="http://www.w3.org/1999/xlink" width="25" height="25" viewBox="0 0 581 581" version="1.1">
    <g id="Page-1" stroke="none" stroke-width="1" fill="none" fill-rule="evenodd">
        <g id="Vegie">
            <circle id="Oval-2-Copy" fill="#FFFFFF" cx="290.5" cy="290.5" r="290.5"/>
            <path d="M309.836416,237.507831 C285.711512,268.812532 264.6984,302.246202 267.322744,338.804706 C256.34839,323.593888 245.082008,300.803285 233.693838,274.851581 C240.070791,299.132831 261.791494,387.312518 322.193838,421.730487 C249.02001,427.355487 200.256338,412.76369 176.646963,355.853534 C164.248278,322.386445 163.353994,276.939472 166.617666,231.259784 C171.703604,174.632831 169.103994,144.966815 218.385244,180.236347 L309.836416,237.507831 Z M352.70148,281.54283 L353.748664,282.295914 C341.859272,309.526588 324.571032,348.348545 342.093647,411.658578 C281.587891,377.959976 280.446854,346.500272 277,328.947744 C277.786116,306.026348 285.913823,284.421325 301.383121,264.132674 C332.451008,224.1481 350.66825,199.451417 356.034848,190.042624 C366.176706,173.101835 367.711868,177.674049 369.592105,182.052596 L408.705387,264.267439 C441.248355,339.329939 382.224918,374.865096 359.855777,404.656111 C340.990543,384.406111 345.254331,330.922776 352.70148,281.54283 Z M290.5,581 C450.93872,581 581,450.93872 581,290.5 C581,130.06128 450.93872,0 290.5,0 C130.06128,0 0,130.06128 0,290.5 C0,450.93872 130.06128,581 290.5,581 Z" id="Oval-2" fill="#B1B742"/>
        </g>
    </g>
</svg>