<svg xmlns="http://www.w3.org/2000/svg" xmlns:xlink="http://www.w3.org/1999/xlink" width="25" height="25" viewBox="0 0 867 867" version="1.1">
    <g id="Page-1" stroke="none" stroke-width="1" fill="none" fill-rule="evenodd">
        <circle id="Oval" fill="#FF5E3C" cx="433.5" cy="433.5" r="433.5"/>
        <g id="sheep" transform="translate(132.000000, 157.000000)" fill="#FFFFFF">
            <path d="M594.559374,129.186327 L587.851003,114.094075 L572.108238,119.085566 C530.569575,132.25448 482.11055,147.458622 460.970232,154.08489 C460.229438,153.405303 459.476866,152.735138 458.714872,152.069685 C461.848821,144.345712 463.557713,135.951575 463.557713,127.254745 L463.557713,126.472689 C463.355142,101.362123 448.893752,78.8427031 427.105681,67.8597747 C423.515949,47.8808564 410.964842,30.588486 392.408472,20.9741542 C377.656181,13.3255605 360.668552,11.6012702 344.884567,15.7942165 C333.033034,5.63221055 317.969821,0 301.919668,0 C301.898469,0 301.876092,0 301.856071,0 C285.76823,0.0129557332 270.675574,5.69227804 258.81933,15.9190627 C243.012968,11.7579167 226.008851,13.5387412 211.255382,21.2568247 C192.673102,30.9795136 180.180882,48.3778854 176.713634,68.4321826 C154.894942,79.603558 140.585479,102.339692 140.670276,127.580993 C140.692653,135.878552 142.27906,143.892262 145.164507,151.311185 C144.101014,152.22162 143.057542,153.146188 142.031736,154.08489 C120.892596,147.459799 72.4323926,132.255658 30.8913739,119.084388 L15.1486093,114.092897 L8.44023881,129.185149 C0.379830227,147.318464 -6.00348575,174.049675 9.35769326,198.411164 C29.3756308,230.159777 75.6817595,240.05678 101.477658,243.136711 C101.116094,247.939755 100.932367,252.861755 100.932367,257.908602 C100.932367,303.619962 111.474261,331.684436 124.822693,367.213767 C129.278059,379.074152 133.885353,391.339698 138.658707,405.680517 C151.022554,442.83756 165.967993,481.147663 191.392905,509.631431 C215.210212,536.31553 245.322504,551.148667 283.038244,554.706782 L283.038244,556 L319.962547,556 L319.962547,554.706782 C357.678287,551.151022 387.790579,536.317886 411.607885,509.631431 C437.032797,481.146485 451.979414,442.836382 464.342083,405.680517 C469.115437,391.339698 473.722731,379.07533 478.178097,367.213767 C491.52653,331.684436 502.068423,303.619962 502.068423,257.908602 C502.068423,252.861755 501.881163,247.940932 501.518421,243.137889 C527.313142,240.057958 573.622804,230.162133 593.641919,198.412342 C609.003098,174.050853 602.62096,147.319642 594.559374,129.186327 Z M108.432175,206.711078 C87.2200153,204.329579 51.9669163,196.809365 40.5735217,178.689005 C39.148464,176.420574 35.6329293,170.83312 37.3135551,159.850191 C66.7792714,169.164186 97.2719714,178.745539 117.652651,185.139783 C113.9687,191.902675 110.900704,199.098996 108.432175,206.711078 Z M199.092928,99.1490481 L213.095002,95.3176845 L212.674551,80.8072633 C212.345963,69.4980861 218.363004,59.2159451 228.374917,53.9771178 C236.792179,49.5721685 246.877112,49.546257 255.347372,53.9017389 L269.169253,61.0097253 L278.528702,48.6016663 C284.120581,41.1909869 292.634417,36.9344397 301.889047,36.9261951 C301.898469,36.9261951 301.909069,36.9261951 301.917313,36.9261951 C311.161344,36.9261951 319.668113,41.1532975 325.262348,48.5251097 L334.647707,60.8954793 L348.4425,53.769826 C356.910404,49.3966772 366.992981,49.391966 375.418487,53.7592259 C385.424512,58.9438747 391.483951,69.1777261 391.229561,80.4680587 L390.902151,94.9902578 L404.937202,98.7262201 C417.58606,102.092355 426.501503,113.593513 426.634587,126.708248 L426.634587,127.253567 C426.634587,140.440148 417.760365,152.057907 405.056153,155.510021 L391.041123,159.315473 L391.439197,173.832961 C391.747763,185.128005 385.722478,195.378345 375.690544,200.59715 C367.27446,204.991499 357.197771,205.012699 348.731045,200.651329 L334.920941,193.540987 L325.553248,205.930201 C319.953125,213.334991 311.440466,217.582116 302.197613,217.582116 C292.931206,217.582116 284.410303,213.346769 278.823135,205.959646 L269.447198,193.562187 L255.633561,200.690196 C247.163301,205.062167 237.083079,205.057456 228.657573,200.670173 C218.644483,195.465502 212.600354,185.22105 212.881832,173.934251 L213.243396,159.412052 L199.215412,155.643111 C186.521799,152.23222 177.632266,140.65215 177.596934,127.456147 C177.551003,114.267211 186.392249,102.627074 199.092928,99.1490481 Z M277.411033,455.123128 C267.857258,445.574753 262.860134,435.552904 262.860134,430.587325 C262.860134,426.154109 263.619772,425.834927 266.443977,424.645355 C274.494964,421.258019 290.307215,420.866992 301.499217,420.866992 C312.691219,420.866992 328.50347,421.258019 336.554457,424.645355 C339.378662,425.834927 340.1383,426.154109 340.1383,430.587325 C340.1383,435.551727 335.139999,445.574753 325.587402,455.123128 C316.194977,464.512501 306.166575,469.577015 301.499217,469.577015 C296.831859,469.577015 286.804636,464.511324 277.411033,455.123128 Z M443.611617,354.228589 C439.248114,365.845171 434.301633,379.012907 429.306865,394.021535 C404.824139,467.595966 379.135415,510.473554 319.961369,517.569762 L319.961369,502.817893 C334.456914,497.223372 346.262515,486.664449 351.689511,481.241886 C359.317692,473.618026 377.062603,453.417683 377.062603,430.589681 C377.062603,411.91458 367.760864,397.717452 350.87452,390.611822 C339.616564,385.873557 325.310635,383.943152 301.499217,383.943152 C277.6878,383.943152 263.38187,385.874734 252.123915,390.611822 C235.235216,397.717452 225.935831,411.915758 225.935831,430.589681 C225.935831,453.417683 243.680743,473.618026 251.308923,481.241886 C256.73592,486.666805 268.541521,497.223372 283.037066,502.817893 L283.037066,517.569762 C223.865376,510.473554 198.174295,467.597144 173.69157,394.021535 C168.696802,379.011729 163.750321,365.843993 159.386818,354.228589 C146.886354,320.954733 137.854315,296.914782 137.854315,257.910958 C137.854315,224.20014 147.63657,198.791592 167.661574,180.718344 C170.583531,182.872529 173.693925,184.800578 176.973913,186.462445 C180.522425,206.460208 193.052332,223.782023 211.615769,233.429333 C226.366882,241.10855 243.361577,242.856396 259.162051,238.668161 C271.018295,248.856078 286.11095,254.508311 302.196436,254.508311 C318.274854,254.508311 333.366332,248.8443 345.228465,238.632827 C361.031294,242.808106 378.023634,241.03906 392.755903,233.344532 C411.023729,223.840913 423.699675,206.194027 427.316495,186.29991 C430.290272,184.7888 433.118011,183.055087 435.798532,181.138817 C455.513792,199.179086 465.14412,224.439232 465.14412,257.90978 C465.14412,296.913604 456.112081,320.954733 443.611617,354.228589 Z M562.427268,178.689005 C551.030341,196.816431 515.75722,204.33429 494.560371,206.713434 C492.090664,199.101352 489.013246,191.909742 485.328118,185.145672 C505.709975,178.751428 536.213275,169.167719 565.688413,159.850191 C567.367861,170.83312 563.853504,176.420574 562.427268,178.689005 Z" id="Shape" fill-rule="nonzero"/>
            <path d="M240.492262,274 C226.989553,274 216,284.960202 216,298.495886 C216,312.029219 226.988362,323 240.492262,323 C254.012828,323 265,312.028044 265,298.495886 C264.998809,284.960202 254.011638,274 240.492262,274 Z" id="Path"/>
            <path d="M362.508271,272 C348.976851,272 338,283.192982 338,297 C338,310.807018 348.976851,322 362.508271,322 C376.023149,322 387,310.807018 387,297 C386.998818,283.191791 376.021968,272 362.508271,272 Z" id="Path"/>
        </g>
    </g>
</svg>