<svg xmlns="http://www.w3.org/2000/svg" xmlns:xlink="http://www.w3.org/1999/xlink" width="25" height="25" viewBox="0 0 867 867" version="1.1">
    <g id="Page-1" stroke="none" stroke-width="1" fill="none" fill-rule="evenodd">
        <circle id="Oval" fill="#FF5E3C" cx="433.5" cy="433.5" r="433.5"/>
        <g id="hen" transform="translate(216.000000, 125.000000)" fill="#FFFFFF">
            <path d="M369.102556,165.550018 C353.750939,152.888262 336.069596,142.475182 316.678903,134.490334 C317.855813,131.65599 319.007425,128.627629 320.059054,125.465504 C330.533184,93.9466855 322.92122,74.4967246 314.692493,63.7317617 C304.132835,49.915541 291.055532,44.8313164 279.750217,43.9118418 C277.78549,39.8290371 275.265434,35.2750469 272.10091,30.69575 C258.224947,10.613123 239.171547,0 216.999398,0 C194.827249,0 175.772644,10.613123 161.900294,30.6921348 C158.73577,35.2726367 156.215715,39.8254219 154.250987,43.9082266 C142.946878,44.8277012 129.86596,49.9143359 119.308712,63.7269414 C111.077576,74.4943145 103.466816,93.9430703 113.940946,125.461889 C114.991371,128.625219 116.144187,131.652375 117.321097,134.486719 C97.9291997,142.472771 80.2478565,152.885852 64.8974439,165.546402 C22.4419828,200.567178 0,249.50299 0,307.064752 C0,364.507211 22.8852812,423.248744 62.7881626,468.223465 C90.9255664,499.938711 124.713821,522.116969 161.136568,533.356732 C160.617379,536.385094 159.993388,539.536373 159.347715,542.772008 C155.83867,560.334816 151.47194,582.196139 165.164802,598.900932 C175.143835,611.080656 192.098795,617 216.999398,617 C241.9,617 258.856165,611.080656 268.836403,598.904547 C282.529265,582.197344 278.163739,560.338432 274.654695,542.775623 C274.009021,539.542398 273.38503,536.388709 272.864636,533.360348 C309.287384,522.119379 343.074434,499.941121 371.211837,468.22708 C411.113514,423.249949 434,364.510826 434,307.068367 C434,249.504195 411.559222,200.569588 369.102556,165.550018 Z M149.303632,86.6740391 C153.50774,81.1752676 157.909404,81.1921387 160.345136,81.8007031 L179.203388,90.2952988 L184.900014,68.8208066 C184.921697,68.7400664 187.300812,60.3635684 192.962504,52.1702422 C202.910217,37.7743789 213.514446,37.7743789 216.999398,37.7743789 C240.200288,37.7743789 248.77233,67.6530859 249.098781,68.8208066 L253.61127,90.7785352 L273.650045,81.8007031 C276.088187,81.1945488 280.489851,81.1716523 284.695163,86.6752441 C289.72925,93.259791 286.687597,105.954084 284.425329,112.933896 C283.26408,116.519004 281.900455,119.899248 280.5549,122.895072 C260.419756,118.120553 239.061927,115.645322 216.998193,115.645322 C194.912776,115.645322 173.536878,118.122963 153.384869,122.907123 C147.770157,110.252598 143.546776,94.2033672 149.303632,86.6740391 Z M239.636528,574.953619 C239.601594,574.994592 235.915472,579.224416 216.999398,579.224416 C198.082119,579.224416 194.397201,574.994592 194.363472,574.952414 C192.001221,572.069867 194.845318,557.827049 196.375179,550.176008 C196.987124,547.111494 197.600273,544.008418 198.155601,540.87642 C204.397917,541.504266 210.682395,541.840482 217.000602,541.840482 C223.318809,541.840482 229.604492,541.504266 235.846808,540.875215 C236.402136,544.008418 237.015285,547.111494 237.626025,550.177213 C239.153477,557.828254 241.998779,572.071072 239.636528,574.953619 Z M342.970837,443.151814 C308.121316,482.433746 263.384314,504.066104 216.999398,504.066104 C170.614481,504.066104 125.877479,482.433746 91.0279587,443.151814 C57.1746553,404.993016 37.7598708,355.39441 37.7598708,307.068367 C37.7598708,261.159711 55.4508509,222.303172 88.9186774,194.696037 C121.184298,168.081887 166.670571,153.424521 217.000602,153.424521 C267.329429,153.424521 312.816907,168.083092 345.082527,194.696037 C378.550354,222.301967 396.241334,261.159711 396.241334,307.068367 C396.238925,355.393205 376.82414,404.994221 342.970837,443.151814 Z" id="Shape" fill-rule="nonzero"/>
            <path d="M217.5,265 L127,345.990475 L217.5,489 L308,345.990475 L217.5,265 Z M176.178858,352.797238 L217.5,315.818688 L258.821142,352.797238 L217.5,418.092502 L176.178858,352.797238 Z" id="Shape" fill-rule="nonzero"/>
            <path d="M120.992102,249 C107.213579,249 96,260.184826 96,273.995801 C96,287.805576 107.213579,299 120.992102,299 C134.790066,299 146,287.805576 146,273.995801 C146,260.183626 134.788851,249 120.992102,249 Z" id="Path"/>
            <path d="M312.008441,248 C298.200617,248 287,259.416587 287,273.5 C287,287.583413 298.200617,299 312.008441,299 C325.799383,299 337,287.583413 337,273.5 C337.001206,259.415373 325.800588,248 312.008441,248 Z" id="Path"/>
        </g>
    </g>
</svg>