<svg xmlns="http://www.w3.org/2000/svg" xmlns:xlink="http://www.w3.org/1999/xlink" width="25" height="25" viewBox="0 0 867 867" version="1.1">
    <g id="Page-1" stroke="none" stroke-width="1" fill="none" fill-rule="evenodd">
        <circle id="Oval" fill="#FF5E3C" cx="433.5" cy="433.5" r="433.5"/>
        <g id="cow" transform="translate(119.000000, 193.000000)" fill="#FFFFFF">
            <path d="M249.992104,200 C236.213284,200 225,211.409456 225,225.495718 C225,239.580757 236.21207,251 249.992104,251 C263.78793,251 275,239.580757 275,225.495718 C275,211.408233 263.78793,200 249.992104,200 Z" id="Path"/>
            <path d="M378.507994,200 C364.42461,200 353,211.416298 353,225.5 C353,239.583702 364.42461,251 378.507994,251 C392.57539,251 404,239.583702 404,225.5 C404,211.416298 392.57539,200 378.507994,200 Z" id="Path"/>
            <path d="M273.993824,411 C262.971097,411 254,419.947834 254,430.996951 C254,442.043629 262.971097,451 273.993824,451 C285.031374,451 294,442.044849 294,430.996951 C293.998765,419.947834 285.031374,411 273.993824,411 Z" id="Path"/>
            <path d="M355.006742,451 C366.039873,451 375,442.045752 375,431 C375,419.954248 366.039873,411 355.006742,411 C343.960127,411 335,419.954248 335,431 C334.998774,442.045752 343.960127,451 355.006742,451 Z" id="Path"/>
            <path d="M619.528872,80.1835279 L612.531216,64.4426246 L596.109575,69.6486452 C549.063361,84.5615972 494.214809,101.771684 470.000659,109.358372 C461.781853,102.721249 452.550746,96.8887367 442.345421,91.9013738 C436.636484,89.1116445 430.772753,86.662186 424.821797,84.4964913 C432.313318,67.1205682 439.753242,39.8473095 439.753242,8.72840998e-15 L401.235421,8.72840998e-15 C401.235421,31.470751 395.858184,52.4508422 391.349512,64.5114158 C389.859316,68.4963924 388.365434,71.7860864 387.014061,74.4308629 C360.559088,69.579854 334.735575,68.7494458 314.501833,68.7494458 C294.268091,68.7494458 268.444579,69.5786256 241.989606,74.4308629 C240.637004,71.7860864 239.144351,68.4963924 237.654155,64.5114158 C233.143026,52.4508422 227.768246,31.470751 227.768246,0 L189.250425,0 C189.250425,39.8473095 196.68912,67.1217966 204.18187,84.4964913 C198.230914,86.662186 192.367183,89.1104161 186.658246,91.9013738 C176.452921,96.8875083 167.223042,102.72002 159.003008,109.358372 C134.788858,101.770456 79.9415348,84.5640541 32.8940921,69.6486452 L16.4687654,64.4426246 L9.47110946,80.1835279 C0.434108498,100.512559 -6.72816932,130.36426 10.464983,157.130184 C32.3572284,191.206402 82.2622111,201.701975 111.542782,204.935162 C111.152113,209.913926 110.937121,215.003248 110.937121,220.221552 C110.937121,266.581915 121.621569,295.024625 135.151272,331.033139 C139.658715,343.029835 144.319724,355.435593 149.146584,369.938255 C161.679955,407.596529 176.833763,446.429168 202.633934,475.331305 C230.666327,506.734493 267.257827,522 314.500605,522 C361.743382,522 398.334882,506.734493 426.367276,475.331305 C452.168676,446.429168 467.321254,407.597758 479.855855,369.938255 C484.683943,355.434365 489.343723,343.028607 493.851167,331.033139 C507.379641,295.023396 518.065317,266.581915 518.065317,220.221552 C518.065317,215.003248 517.849097,209.915155 517.459656,204.935162 C546.740227,201.701975 596.642753,191.20763 618.537455,157.130184 C635.728151,130.36426 628.564644,100.512559 619.528872,80.1835279 Z M119.057646,166.946444 C94.7402996,164.496985 55.8563793,156.527032 42.8709117,136.312243 C37.9150577,128.596572 37.8155475,119.716363 39.2652023,112.065798 C72.6711472,122.627706 107.493577,133.570422 131.124179,140.981447 C126.211324,149.00545 122.183003,157.669458 119.057646,166.946444 Z M314.498148,483.483063 C257.939495,483.483063 228.045892,457.021787 204.845272,407.302938 C230.715468,385.077235 271.437256,371.618726 314.498148,371.618726 C357.561497,371.618726 398.282056,385.078463 424.151024,407.302938 C400.950404,457.020558 371.058029,483.483063 314.498148,483.483063 Z M457.789159,317.487412 C453.371398,329.247024 448.362717,342.577778 443.304896,357.776951 C441.905611,361.981814 440.498954,366.061378 439.087383,370.06601 C406.608972,346.595922 362.079997,333.104246 314.498148,333.104246 C266.916298,333.104246 222.387324,346.595922 189.908912,370.06601 C188.496113,366.061378 187.090685,361.981814 185.6914,357.776951 C180.633578,342.577778 175.624898,329.247024 171.207136,317.487412 C158.57794,283.87185 149.453714,259.584866 149.453714,220.220324 C149.453714,174.955706 167.154245,144.300623 203.56761,126.503353 C230.055752,113.557093 266.341351,107.263926 314.498148,107.263926 C362.654945,107.263926 398.941772,113.557093 425.428686,126.503353 C461.843279,144.300623 479.542582,174.956935 479.542582,220.220324 C479.545039,259.584866 470.418356,283.87185 457.789159,317.487412 Z M586.14504,136.282761 C573.246798,156.411561 534.283024,164.428194 509.93005,166.919419 C506.805921,157.651031 502.780058,148.99808 497.872116,140.981447 C521.50149,133.569194 556.325149,122.627706 589.731093,112.065798 C591.17952,119.706536 591.083695,128.57446 586.14504,136.282761 Z" id="Shape" fill-rule="nonzero"/>
        </g>
    </g>
</svg>