<svg xmlns="http://www.w3.org/2000/svg" width="48" height="48" fill-rule="none" viewBox="0 0 256 256"><g fill="none" stroke-miterlimit="10" font-family="none" font-size="none" font-weight="none" style="mix-blend-mode:normal" text-anchor="none"><path fill="#fff" fill-rule="nonzero" d="m9.637 247.421 16.667-60.846c-10.283-17.805-15.69-38.01-15.684-58.705.031-64.743 52.717-117.417 117.467-117.417 31.422.013 60.907 12.244 83.086 34.435 22.173 22.198 34.386 51.696 34.374 83.075-.025 64.743-52.723 117.423-117.46 117.423-.007 0 0 0 0 0h-.05c-19.655-.007-38.976-4.937-56.132-14.298z"/><path fill="#fff" fill-rule="nonzero" d="M9.637 250.514a3.085 3.085 0 0 1-2.197-.915 3.103 3.103 0 0 1-.785-2.988l16.326-59.615C12.86 169.017 7.521 148.6 7.533 127.876 7.558 61.42 61.636 7.36 128.087 7.36c32.232.012 62.516 12.565 85.276 35.344 22.761 22.786 35.29 53.063 35.277 85.259-.025 66.45-54.109 120.516-120.553 120.516-19.73-.006-39.249-4.875-56.571-14.087l-61.094 16.017a2.83 2.83 0 0 1-.785.105z"/><path fill="#cfd8dc" fill-rule="nonzero" d="M128.087 10.453c31.422.013 60.907 12.244 83.086 34.435 22.173 22.198 34.386 51.696 34.374 83.075-.025 64.743-52.723 117.423-117.46 117.423h-.05c-19.655-.007-38.976-4.937-56.132-14.298L9.637 247.421l16.667-60.846c-10.283-17.805-15.69-38.01-15.684-58.705.031-64.743 52.717-117.417 117.467-117.417M128.087 4.266C59.934 4.267 4.465 59.713 4.434 127.87c-.006 20.83 5.252 41.358 15.225 59.528L3.667 245.794a6.191 6.191 0 0 0 7.542 7.616l59.93-15.714c17.495 9.082 37.107 13.876 56.898 13.882 68.202 0 123.671-55.45 123.702-123.609.013-33.03-12.837-64.088-36.18-87.449-23.354-23.367-54.417-36.241-87.472-36.253z"/><path fill="#40c351" fill-rule="nonzero" d="M197.142 58.907c-18.436-18.448-42.942-28.613-69.025-28.62-53.848 0-97.644 43.778-97.668 97.59-.007 18.442 5.153 36.395 14.928 51.942l2.326 3.694-9.868 36.012 36.953-9.688 3.57 2.116c14.984 8.896 32.17 13.598 49.691 13.604h.038c53.811 0 97.606-43.783 97.625-97.6.006-26.077-10.134-50.601-28.57-69.05z"/><path fill="#fff" fill-rule="evenodd" d="M98.725 78.785c-2.197-4.887-4.51-4.986-6.608-5.073-1.713-.074-3.668-.068-5.623-.068s-5.135.736-7.827 3.675c-2.69 2.938-10.276 10.035-10.276 24.474 0 14.44 10.518 28.397 11.984 30.352 1.466 1.955 20.305 32.536 50.137 44.303 24.79 9.775 29.838 7.832 35.22 7.343 5.383-.489 17.366-7.096 19.81-13.95 2.444-6.856 2.444-12.727 1.714-13.952-.736-1.225-2.691-1.955-5.624-3.427-2.932-1.472-17.366-8.569-20.057-9.546-2.691-.978-4.646-1.466-6.607 1.472-1.955 2.933-7.58 9.546-9.293 11.501-1.714 1.962-3.427 2.209-6.36.737-2.932-1.473-12.385-4.566-23.602-14.564-8.723-7.776-14.613-17.384-16.326-20.323-1.714-2.932-.186-4.522 1.286-5.989 1.318-1.317 2.933-3.427 4.405-5.14 1.467-1.715 1.955-2.94 2.933-4.894.977-1.962.489-3.675-.248-5.142-.724-1.472-6.428-15.986-9.038-21.789z"/></g></svg>