<svg xmlns="http://www.w3.org/2000/svg" width="48" height="48" viewBox="0 0 256 256"><g fill="none" stroke-miterlimit="10" font-family="none" font-size="none" font-weight="none" style="mix-blend-mode:normal" text-anchor="none"><path fill="#29b6f6" d="M128 0C57.308 0 0 57.308 0 128c0 70.692 57.308 128 128 128 70.692 0 128-57.308 128-128C256 57.308 198.692 0 128 0z"/><path fill="#fff" d="m191.68 70.4-23.975 122.406s-1.03 5.594-7.968 5.594c-3.686 0-5.587-1.754-5.587-1.754l-51.93-43.09-25.407-12.807-32.608-8.672S38.4 130.4 38.4 125.6c0-4 5.971-5.907 5.971-5.907l136.422-54.195c-.006-.007 4.167-1.504 7.207-1.498 1.869 0 4 .8 4 3.2 0 1.6-.32 3.2-.32 3.2z"/><path fill="#b0bec5" d="m121.6 169.632-21.926 21.593s-.954.736-2.228.768a3.162 3.162 0 0 1-1.401-.275l6.17-38.176z"/><path fill="#cfd8dc" d="M165.74 90.854a3.201 3.201 0 0 0-4.486-.595L76.8 140.8s13.478 37.71 15.533 44.238c2.06 6.534 3.712 6.688 3.712 6.688l6.17-38.176 62.924-58.215a3.193 3.193 0 0 0 .602-4.48z"/></g></svg>