<svg width="27" height="20" fill="none" xmlns="http://www.w3.org/2000/svg"><g clip-path="url(#a)"><path d="M24.5034 1c.3957 0 .7632.16732 1.04.45853.278.29232.4565.70318.4565 1.16695V17.3745c0 .4623-.1786.8723-.4569 1.165-.2789.2934-.6476.4605-1.0396.4605H2.49642c-.39561 0-.76315-.1673-1.04-.4585-.27792-.2924-.456489-.7032-.456489-1.167V2.62548c0-.46229.178649-.87228.456949-1.16501C1.73575 1.16714 2.10449 1 2.49642 1H24.5034Z" fill="#fff" stroke="#D6D6D6" stroke-width="2"/><path d="M15.611 6.31494h-4.2967v7.35566h4.2967V6.31494Z" fill="#FF5F00"/><path fill-rule="evenodd" clip-rule="evenodd" d="M11.7568 9.99349c-.001-1.43513.6275-2.79108 1.7046-3.67716-1.8298-1.50724-4.45742-1.2877-6.03628.50434-1.57886 1.79203-1.57886 4.55493 0 6.34693 1.57886 1.7921 4.20648 2.0116 6.03628.5044-1.0774-.8864-1.706-2.2429-1.7046-3.67851Z" fill="#EB001B"/><path d="M20.3922 13.5589v-.703h.1607v-.1455h-.3825v.1455h.1511v.703h.0707Zm.7425 0v-.8485h-.1157l-.135.6061-.135-.6061h-.1157v.8485h.0836v-.6424l.1253.5515h.0868l.1254-.5515v.6424h.0803Z" fill="#F79E1B"/><path fill-rule="evenodd" clip-rule="evenodd" d="M20.6827 9.99359c0 1.79091-.9757 3.42461-2.5126 4.20731-1.5369.7826-3.3653.5768-4.7085-.5302 1.0766-.8868 1.7052-2.2426 1.7052-3.67776 0-1.43521-.6286-2.79099-1.7052-3.67781 1.3432-1.10691 3.1716-1.31275 4.7085-.53012 1.5369.78263 2.5126 2.41633 2.5126 4.20728v.0013Z" fill="#F79E1B"/></g><defs><clipPath id="a"><path fill="#fff" d="M0 0h27v20H0z"/></clipPath></defs></svg>
