<svg width="27" height="20" fill="none" xmlns="http://www.w3.org/2000/svg"><g clip-path="url(#a)"><path d="M24.503 1c.396 0 .764.167 1.04.459.278.292.457.703.457 1.166v14.75c0 .462-.179.872-.457 1.165a1.43 1.43 0 0 1-1.04.46H2.496c-.395 0-.763-.167-1.04-.459A1.688 1.688 0 0 1 1 17.374V2.625c0-.462.179-.872.457-1.165.279-.293.647-.46 1.04-.46h22.006Z" fill="#fff" stroke="#D6D6D6" stroke-width="2"/><path fill-rule="evenodd" clip-rule="evenodd" d="M11.89 12.416h-1.457l.912-5.647h1.458l-.912 5.647Zm5.287-5.509a3.59 3.59 0 0 0-1.308-.24c-1.44 0-2.454.769-2.46 1.868-.012.811.726 1.261 1.278 1.532.564.276.756.457.756.703-.006.378-.456.553-.876.553-.582 0-.894-.09-1.368-.3l-.192-.091-.204 1.268c.342.156.972.294 1.626.3 1.53 0 2.526-.757 2.538-1.928.006-.643-.384-1.136-1.224-1.538-.51-.259-.822-.433-.822-.697.006-.24.264-.487.84-.487.473-.012.822.102 1.086.217l.132.06.198-1.22Z" fill="#0742A6"/><path d="m19.114 10.416.583-1.58c-.006.012.12-.33.192-.54l.101.486s.277 1.351.337 1.634h-1.213Zm1.8-3.647h-1.127c-.348 0-.612.102-.763.469l-2.165 5.178h1.53l.306-.847h1.872c.042.198.174.847.174.847h1.35l-1.177-5.647Z" fill="#0742A6"/><path fill-rule="evenodd" clip-rule="evenodd" d="m9.215 6.77-1.428 3.85-.156-.781c-.264-.901-1.092-1.88-2.016-2.367l1.308 4.938h1.541l2.292-5.64H9.215Z" fill="#0742A6"/><path fill-rule="evenodd" clip-rule="evenodd" d="M6.46 6.77H4.116l-.024.113c1.83.469 3.042 1.599 3.54 2.956l-.51-2.595c-.084-.36-.342-.463-.66-.475Z" fill="#0742A6"/></g><defs><clipPath id="a"><path fill="#fff" d="M0 0h27v20H0z"/></clipPath></defs></svg>