<svg width="27" height="20" fill="none" xmlns="http://www.w3.org/2000/svg"><g clip-path="url(#a)"><path d="M24.503.5c.543 0 1.039.23 1.403.614.365.384.594.918.594 1.511v14.75c0 .593-.23 1.125-.595 1.509a1.93 1.93 0 0 1-1.402.616H2.496c-.542 0-1.038-.23-1.402-.614A2.188 2.188 0 0 1 .5 17.375V2.625c0-.593.23-1.125.595-1.509A1.93 1.93 0 0 1 2.496.5h22.007Z" fill="#fff" stroke="#F3F3F3"/><path d="M13.012 10.16v2.157h-.664V6.99h1.762a1.57 1.57 0 0 1 1.142.462c.31.286.483.696.477 1.124.009.43-.165.844-.477 1.13a1.564 1.564 0 0 1-1.142.454h-1.098Zm0-2.515v1.86h1.115a.866.866 0 0 0 .658-.275.921.921 0 0 0 .267-.651.921.921 0 0 0-.267-.652.855.855 0 0 0-.658-.282h-1.115ZM17.26 8.553c.492 0 .88.135 1.164.406.284.27.426.64.426 1.112v2.246h-.636v-.505h-.029c-.275.416-.64.625-1.098.625-.39 0-.716-.12-.979-.358-.255-.22-.4-.549-.394-.892 0-.378.139-.678.416-.9.277-.223.646-.335 1.109-.335.394 0 .72.074.975.223v-.157a.789.789 0 0 0-.275-.605.926.926 0 0 0-.641-.25c-.371 0-.665.161-.882.484l-.585-.38c.322-.476.799-.714 1.43-.714Zm-.86 2.648c0 .177.082.343.221.447.147.119.33.182.517.178.28 0 .549-.115.747-.32.22-.213.33-.463.33-.75-.207-.17-.496-.255-.866-.255a1.1 1.1 0 0 0-.676.2c-.182.137-.272.302-.272.5Z" fill="#5F6368"/><path fill-rule="evenodd" clip-rule="evenodd" d="m22.5 8.672-2.22 5.252h-.686l.824-1.838-1.46-3.414h.723l1.055 2.619h.014l1.026-2.62h.724Z" fill="#5F6368"/><path fill-rule="evenodd" clip-rule="evenodd" d="M10.327 9.695a3.76 3.76 0 0 0-.052-.622H7.472v1.178h1.606a1.42 1.42 0 0 1-.594.93v.766h.958c.561-.533.885-1.32.885-2.252Z" fill="#4285F4"/><path fill-rule="evenodd" clip-rule="evenodd" d="M7.472 12.686c.802 0 1.478-.271 1.97-.739l-.958-.765c-.267.186-.61.292-1.012.292-.775 0-1.433-.538-1.668-1.263h-.988v.788a2.965 2.965 0 0 0 2.656 1.687Z" fill="#34A853"/><path fill-rule="evenodd" clip-rule="evenodd" d="M5.804 10.21a1.886 1.886 0 0 1 0-1.17v-.79h-.987a3.142 3.142 0 0 0 0 2.75l.987-.79Z" fill="#FBBC04"/><path fill-rule="evenodd" clip-rule="evenodd" d="M7.472 7.776c.424-.007.834.158 1.14.459l.849-.874a2.811 2.811 0 0 0-1.989-.797 2.964 2.964 0 0 0-2.656 1.687l.988.788c.235-.725.893-1.263 1.668-1.263Z" fill="#EA4335"/></g><defs><clipPath id="a"><path fill="#fff" d="M0 0h27v20H0z"/></clipPath></defs></svg>