<svg width="27" height="20" fill="none" xmlns="http://www.w3.org/2000/svg"><g clip-path="url(#a)"><path d="M24.5034 1c.3956 0 .7632.16732 1.04.45853.278.29232.4565.70318.4565 1.16695V17.3745c0 .4623-.1786.8723-.4569 1.165-.2789.2934-.6476.4605-1.0396.4605H2.49642c-.39562 0-.76315-.1673-1.04001-.4585-.27792-.2924-.456482-.7032-.456482-1.167V2.62548c0-.46229.178642-.87228.456952-1.16501C1.73575 1.16714 2.10449 1 2.49642 1H24.5034Z" fill="#fff" stroke="#D6D6D6" stroke-width="2"/><path fill-rule="evenodd" clip-rule="evenodd" d="M11.8907 12.4161h-1.4581l.912-5.64681h1.458l-.9119 5.64681ZM17.1769 6.90716c-.2876-.11426-.7438-.24041-1.3079-.24041-1.4399 0-2.4539.76889-2.4601 1.86817-.012.81104.7259 1.26152 1.2779 1.53198.5641.2763.7559.4567.7559.703-.0058.3783-.4559.5527-.8757.5527-.5821 0-.8941-.0899-1.3681-.3004l-.192-.0902-.204 1.2676c.3419.156.972.2944 1.6262.3005 1.53 0 2.526-.757 2.5378-1.9285.0058-.64278-.3838-1.13534-1.2239-1.53782-.51-.25838-.8224-.43259-.8224-.69695.006-.24033.2642-.48649.8399-.48649.474-.01205.8223.10204 1.0862.21622l.1319.05996.1983-1.21936Z" fill="#0742A6"/><path d="M19.1145 10.4156c.1201-.3244.5822-1.5799.5822-1.5799-.0061.01206.1198-.33039.1918-.54061l.1019.48656s.2762 1.35165.3361 1.63395h-1.212Zm1.7999-3.64631h-1.1278c-.3479 0-.6121.10204-.7622.46852L16.8586 12.416h1.5299s.2519-.6969.3061-.847h1.8721c.0419.1982.174.847.174.847h1.3501l-1.1764-5.64671Z" fill="#0742A6"/><path fill-rule="evenodd" clip-rule="evenodd" d="M9.21456 6.76929 7.78657 10.6199l-.15605-.78097c-.264-.90111-1.09198-1.88014-2.01596-2.36694l1.30799 4.93811h1.54193l2.29192-5.64081H9.21456Z" fill="#0742A6"/><path fill-rule="evenodd" clip-rule="evenodd" d="M6.46085 6.76929h-2.346l-.024.11409c1.83002.4686 3.04201 1.59814 3.53997 2.95579l-.51-2.59522c-.08396-.36065-.34199-.46277-.65997-.47466Z" fill="#0742A6"/></g><defs><clipPath id="a"><path fill="#fff" d="M0 0h27v20H0z"/></clipPath></defs></svg>
