<svg width="27" height="20" fill="none" xmlns="http://www.w3.org/2000/svg"><g clip-path="url(#a)"><path d="M24.503 1c.396 0 .764.167 1.04.459.278.292.457.703.457 1.166v14.75c0 .462-.179.872-.457 1.165a1.43 1.43 0 0 1-1.04.46H2.496c-.395 0-.763-.167-1.04-.459A1.688 1.688 0 0 1 1 17.374V2.625c0-.462.179-.872.457-1.165.279-.293.647-.46 1.04-.46h22.006Z" fill="#fff" stroke="#D6D6D6" stroke-width="2"/><path d="M15.611 6.315h-4.297v7.356h4.297V6.315Z" fill="#FF5F00"/><path fill-rule="evenodd" clip-rule="evenodd" d="M11.757 9.993c-.001-1.435.627-2.79 1.704-3.677-1.83-1.507-4.457-1.287-6.036.505-1.579 1.792-1.579 4.555 0 6.347 1.579 1.792 4.207 2.011 6.036.504-1.077-.886-1.706-2.243-1.704-3.679Z" fill="#EB001B"/><path d="M20.392 13.559v-.703h.16v-.146h-.382v.146h.151v.703h.071Zm.743 0v-.849h-.116l-.135.606-.135-.606h-.116v.849h.084v-.642l.125.551h.087l.125-.551v.642h.08Z" fill="#F79E1B"/><path fill-rule="evenodd" clip-rule="evenodd" d="M20.683 9.994c0 1.79-.976 3.424-2.513 4.207a4.296 4.296 0 0 1-4.708-.53c1.076-.887 1.705-2.243 1.705-3.678s-.629-2.791-1.705-3.678a4.296 4.296 0 0 1 4.708-.53c1.537.783 2.513 2.416 2.513 4.207v.002Z" fill="#F79E1B"/></g><defs><clipPath id="a"><path fill="#fff" d="M0 0h27v20H0z"/></clipPath></defs></svg>