<svg width="27" height="20" fill="none" xmlns="http://www.w3.org/2000/svg"><g clip-path="url(#a)"><path d="M24.503.5c.543 0 1.039.23 1.403.614.365.384.594.918.594 1.511v14.75c0 .593-.23 1.125-.595 1.509a1.93 1.93 0 0 1-1.402.616H2.496c-.542 0-1.038-.23-1.402-.614A2.188 2.188 0 0 1 .5 17.375V2.625c0-.593.23-1.125.595-1.509A1.93 1.93 0 0 1 2.496.5h22.007Z" fill="#fff" stroke="#F3F3F3"/><path d="M7.38 7.634c-.212.253-.55.453-.887.424-.042-.342.123-.706.317-.931.21-.26.58-.446.879-.46.035.356-.102.706-.31.967Zm.305.492c-.488-.029-.907.282-1.139.282-.235 0-.59-.268-.977-.26-.503.006-.97.296-1.227.756-.527.92-.137 2.283.373 3.033.25.37.548.777.942.763.372-.014.52-.246.97-.246.454 0 .584.246.977.239.408-.007.665-.371.914-.742.285-.421.401-.832.408-.853-.007-.007-.787-.31-.794-1.224-.007-.763.615-1.127.643-1.149-.351-.528-.9-.585-1.09-.6Zm2.823-1.035v5.563h.851v-1.902h1.178c1.076 0 1.831-.75 1.831-1.834 0-1.085-.741-1.827-1.803-1.827h-2.057Zm.851.728h.98c.74 0 1.161.4 1.161 1.103s-.422 1.106-1.164 1.106h-.977V7.819Zm4.563 4.878c.535 0 1.03-.275 1.255-.71h.018v.667h.788V9.885c0-.803-.633-1.32-1.607-1.32-.904 0-1.572.524-1.596 1.245h.766c.064-.342.376-.567.805-.567.52 0 .812.246.812.7v.306l-1.061.064c-.988.06-1.523.471-1.523 1.185 0 .72.552 1.199 1.343 1.199Zm.229-.66c-.454 0-.742-.222-.742-.56 0-.35.278-.554.809-.586l.945-.06v.314c0 .52-.436.892-1.012.892Zm2.883 2.13c.83 0 1.22-.322 1.56-1.296l1.495-4.253h-.865l-1.002 3.287h-.018l-1.002-3.287h-.889l1.441 4.05-.077.246c-.13.418-.341.578-.717.578a2.64 2.64 0 0 1-.25-.014v.667c.05.014.26.022.324.022Z" fill="#000"/></g><defs><clipPath id="a"><path fill="#fff" d="M0 0h27v20H0z"/></clipPath></defs></svg>